<svg xmlns="http://www.w3.org/2000/svg" viewBox="0 -0.5 400 400" shape-rendering="crispEdges">
<metadata>Made with Pixels to Svg https://codepen.io/shshaw/pen/XbxvNj</metadata>
<!-- <path stroke="#c0d1cb" d="M0 0h400M0 1h117M118 1h282M0 2h118M119 2h281M0 3h400M0 4h230M231 4h169M0 5h400M0 6h400M0 7h400M0 8h321M322 8h48M371 8h29M0 9h398M399 9h1M0 10h118M119 10h200M320 10h80M0 11h400M0 12h400M0 13h117M118 13h253M372 13h28M0 14h83M84 14h316M0 15h339M340 15h60M0 16h400M0 17h400M0 18h124M125 18h81M207 18h193M0 19h400M0 20h400M0 21h195M196 21h118M315 21h85M0 22h400M0 23h176M177 23h223M0 24h77M78 24h322M0 25h400M0 26h400M0 27h343M344 27h56M0 28h301M302 28h98M0 29h400M0 30h373M374 30h26M0 31h400M0 32h40M41 32h170M212 32h188M0 33h400M0 34h165M166 34h234M0 35h400M0 36h378M379 36h21M0 37h400M0 38h227M228 38h172M0 39h400M0 40h265M266 40h75M342 40h58M0 41h163M164 41h48M213 41h187M0 42h34M35 42h356M392 42h8M0 43h219M220 43h180M0 44h400M0 45h400M0 46h353M354 46h46M0 47h46M47 47h353M0 48h400M0 49h106M107 49h293M0 50h400M0 51h51M52 51h348M0 52h103M104 52h296M0 53h400M0 54h320M321 54h79M0 55h287M288 55h112M0 56h84M316 56h84M0 57h84M316 57h84M0 58h84M316 58h84M0 59h81M82 59h1M317 59h1M319 59h81M0 60h80M320 60h80M0 61h80M320 61h80M0 62h80M320 62h80M0 63h80M320 63h80M0 64h76M324 64h60M385 64h15M0 65h76M324 65h76M0 66h76M324 66h76M0 67h76M324 67h76M0 68h76M324 68h76M0 69h76M324 69h76M0 70h76M324 70h76M0 71h76M324 71h76M0 72h76M324 72h76M0 73h76M324 73h76M0 74h76M324 74h76M0 75h76M324 75h76M0 76h76M324 76h76M0 77h76M324 77h76M0 78h76M324 78h76M0 79h76M324 79h76M0 80h44M45 80h31M324 80h76M0 81h76M324 81h76M0 82h76M324 82h76M0 83h76M324 83h13M338 83h62M0 84h76M324 84h76M0 85h28M29 85h47M324 85h76M0 86h76M324 86h76M0 87h76M324 87h76M0 88h76M324 88h76M0 89h76M324 89h76M0 90h76M324 90h76M0 91h76M324 91h76M0 92h76M324 92h76M0 93h76M324 93h76M0 94h76M324 94h76M0 95h76M324 95h76M0 96h76M324 96h76M0 97h76M324 97h76M0 98h76M324 98h39M364 98h36M0 99h76M324 99h76M0 100h76M324 100h76M0 101h76M324 101h76M0 102h76M324 102h76M0 103h76M324 103h76M0 104h76M324 104h76M0 105h76M324 105h76M0 106h76M324 106h76M0 107h76M324 107h76M0 108h3M4 108h72M324 108h52M377 108h23M0 109h76M324 109h8M333 109h67M0 110h76M324 110h76M0 111h76M324 111h76M0 112h76M324 112h76M0 113h76M324 113h76M0 114h76M324 114h76M0 115h76M324 115h76M0 116h76M324 116h35M360 116h40M0 117h76M324 117h76M0 118h76M324 118h76M0 119h76M324 119h76M0 120h76M324 120h76M0 121h76M324 121h76M0 122h76M324 122h76M0 123h76M324 123h76M0 124h76M324 124h76M0 125h76M324 125h76M0 126h35M36 126h40M324 126h76M0 127h76M324 127h76M0 128h76M324 128h61M386 128h14M0 129h76M324 129h45M370 129h30M0 130h47M48 130h28M324 130h76M0 131h76M324 131h76M0 132h76M324 132h76M0 133h76M324 133h76M0 134h76M324 134h76M0 135h76M324 135h76M0 136h76M324 136h76M0 137h76M324 137h76M0 138h76M325 138h75M0 139h12M13 139h63M324 139h76M0 140h76M324 140h76M0 141h76M324 141h76M0 142h37M38 142h38M324 142h19M344 142h56M0 143h76M324 143h69M394 143h6M0 144h76M324 144h76M0 145h76M324 145h76M0 146h76M324 146h76M0 147h76M324 147h76M0 148h76M324 148h76M0 149h76M324 149h76M0 150h76M324 150h76M0 151h76M324 151h76M0 152h76M324 152h76M0 153h76M324 153h76M0 154h76M324 154h76M0 155h76M324 155h76M0 156h76M324 156h76M0 157h76M324 157h73M398 157h2M0 158h76M324 158h76M0 159h76M324 159h54M379 159h21M0 160h76M324 160h76M0 161h76M324 161h32M357 161h43M0 162h76M324 162h76M0 163h76M324 163h76M0 164h76M324 164h76M0 165h76M324 165h76M0 166h48M49 166h27M324 166h76M0 167h76M324 167h12M337 167h63M0 168h76M324 168h76M0 169h76M324 169h76M0 170h56M57 170h19M324 170h76M0 171h76M324 171h76M0 172h76M324 172h76M0 173h76M324 173h76M0 174h76M324 174h76M0 175h76M324 175h76M0 176h76M324 176h76M0 177h76M324 177h76M0 178h76M324 178h76M0 179h76M324 179h76M0 180h76M324 180h76M0 181h76M324 181h76M0 182h76M324 182h7M332 182h68M0 183h76M324 183h76M0 184h76M324 184h76M0 185h13M14 185h62M324 185h76M0 186h76M324 186h76M0 187h76M324 187h76M0 188h76M324 188h76M0 189h76M324 189h76M0 190h76M324 190h76M0 191h76M324 191h76M0 192h76M324 192h76M0 193h76M324 193h76M0 194h76M324 194h16M341 194h59M0 195h76M324 195h76M0 196h76M324 196h76M0 197h76M324 197h76M0 198h76M324 198h76M0 199h76M324 199h76M0 200h76M324 200h76M0 201h76M324 201h76M0 202h76M324 202h24M349 202h51M0 203h76M324 203h76M0 204h76M324 204h75M0 205h53M54 205h22M324 205h76M0 206h76M324 206h76M0 207h76M324 207h76M0 208h76M324 208h76M0 209h76M324 209h76M0 210h76M324 210h76M0 211h76M324 211h76M0 212h76M324 212h76M0 213h76M324 213h76M0 214h76M324 214h76M0 215h61M62 215h14M324 215h76M0 216h80M320 216h80M0 217h80M320 217h80M0 218h80M320 218h80M0 219h80M320 219h80M0 220h80M81 220h2M317 220h2M320 220h80M0 221h74M75 221h5M82 221h1M317 221h1M320 221h80M0 222h80M81 222h1M318 222h1M320 222h80M0 223h84M316 223h84M0 224h88M308 224h52M361 224h39M0 225h88M308 225h1M312 225h88M0 226h51M52 226h36M312 226h88M0 227h80M308 227h4M320 227h80M0 228h80M320 228h80M0 229h80M320 229h80M0 230h80M320 230h80M0 231h80M320 231h80M0 232h76M324 232h76M0 233h76M324 233h76M0 234h76M324 234h76M0 235h76M324 235h76M0 236h76M324 236h20M345 236h55M0 237h76M324 237h76M0 238h76M324 238h76M0 239h76M324 239h76M0 240h43M44 240h14M59 240h17M324 240h76M0 241h76M324 241h60M385 241h15M0 242h76M324 242h76M0 243h76M324 243h60M385 243h15M0 244h76M324 244h76M0 245h76M324 245h76M0 246h76M324 246h76M0 247h76M324 247h76M0 248h9M10 248h66M324 248h76M0 249h76M324 249h76M0 250h76M324 250h76M0 251h40M41 251h35M324 251h76M0 252h76M324 252h76M0 253h76M324 253h76M0 254h76M324 254h76M0 255h76M324 255h76M0 256h76M324 256h76M0 257h76M324 257h76M0 258h76M324 258h76M0 259h76M324 259h76M0 260h76M324 260h72M397 260h3M0 261h76M324 261h76M0 262h76M324 262h76M0 263h76M324 263h76M0 264h76M324 264h76M0 265h76M324 265h76M0 266h76M324 266h76M0 267h76M324 267h76M0 268h76M324 268h76M0 269h76M324 269h76M0 270h76M324 270h76M0 271h76M324 271h76M0 272h27M28 272h48M324 272h76M0 273h76M324 273h76M0 274h76M324 274h76M0 275h52M53 275h23M324 275h76M0 276h76M324 276h76M0 277h76M324 277h76M0 278h76M324 278h76M0 279h76M324 279h76M0 280h58M59 280h17M324 280h76M0 281h76M324 281h76M0 282h76M324 282h76M0 283h76M324 283h76M0 284h76M324 284h76M0 285h76M324 285h76M0 286h76M324 286h76M0 287h67M68 287h8M324 287h36M361 287h39M0 288h76M324 288h76M0 289h76M324 289h76M0 290h76M324 290h76M0 291h76M324 291h76M0 292h76M324 292h25M350 292h50M0 293h76M324 293h76M0 294h58M59 294h17M324 294h76M0 295h60M61 295h15M324 295h76M0 296h76M324 296h76M0 297h76M324 297h76M0 298h74M75 298h1M324 298h76M0 299h74M75 299h1M325 299h75M0 300h74M77 300h1M320 300h3M325 300h75M0 301h76M77 301h1M320 301h5M326 301h74M0 302h80M320 302h80M0 303h80M320 303h56M377 303h23M0 304h57M58 304h342M0 305h265M266 305h78M345 305h55M0 306h400M0 307h400M0 308h72M328 308h72M0 309h72M328 309h48M378 309h22M0 310h72M328 310h72M0 311h72M328 311h72M0 312h68M332 312h68M0 313h64M65 313h1M332 313h68M0 314h64M66 314h1M332 314h68M0 315h64M65 315h2M333 315h1M335 315h59M395 315h5M0 316h64M336 316h64M0 317h64M336 317h64M0 318h64M336 318h64M0 319h64M336 319h64M0 320h60M340 320h52M393 320h7M0 321h25M26 321h30M57 321h1M340 321h60M0 322h56M58 322h1M340 322h60M0 323h56M57 323h2M341 323h1M343 323h57M0 324h56M344 324h34M379 324h21M0 325h56M344 325h56M0 326h56M344 326h56M0 327h56M344 327h56M0 328h52M348 328h52M0 329h48M49 329h1M348 329h49M398 329h2M0 330h48M50 330h1M348 330h52M0 331h48M49 331h2M349 331h1M351 331h49M0 332h48M352 332h48M0 333h48M352 333h48M0 334h48M352 334h48M0 335h48M352 335h48M0 336h44M356 336h44M0 337h43M356 337h44M0 338h40M42 338h1M356 338h44M0 339h40M41 339h2M357 339h43M0 340h40M360 340h40M0 341h40M360 341h40M0 342h40M360 342h40M0 343h40M360 343h5M366 343h34M0 344h36M364 344h36M0 345h36M364 345h36M0 346h36M364 346h36M0 347h36M364 347h36M0 348h36M364 348h36M0 349h36M364 349h36M0 350h36M364 350h36M0 351h36M364 351h36M0 352h28M29 352h7M364 352h8M373 352h27M0 353h36M364 353h36M0 354h34M35 354h1M364 354h36M0 355h34M35 355h1M365 355h35M0 356h34M37 356h1M360 356h3M365 356h35M0 357h36M37 357h1M360 357h5M366 357h34M0 358h40M360 358h1M362 358h38M0 359h40M360 359h40M0 360h400M0 361h400M0 362h400M0 363h400M0 364h400M0 365h263M264 365h136M0 366h400M0 367h356M357 367h43M0 368h400M0 369h400M0 370h400M0 371h253M254 371h146M0 372h400M0 373h124M125 373h275M0 374h400M0 375h400M0 376h379M380 376h20M0 377h400M0 378h400M0 379h180M181 379h219M0 380h322M323 380h77M0 381h400M0 382h400M0 383h400M0 384h400M0 385h387M388 385h12M0 386h400M0 387h400M0 388h400M0 389h400M0 390h56M57 390h343M0 391h400M0 392h131M132 392h268M0 393h209M210 393h190M0 394h164M165 394h235M0 395h28M29 395h226M256 395h144M0 396h304M305 396h95M0 397h400M0 398h400M0 399h400" /> -->
<!-- <path stroke="#c1d1cb" d="M117 1h1M118 2h1M321 8h1M118 10h1M117 13h1M339 15h1M314 21h1M176 23h1M343 27h1M373 30h1M40 32h1M378 36h1M163 41h1M34 42h1M391 42h1M219 43h1M106 49h1M51 51h1M3 108h1M332 109h1M385 128h1M369 129h1M324 138h1M37 142h1M393 143h1M331 182h1M348 202h1M53 205h1M61 215h1M51 226h1M43 240h1M360 287h1M349 292h1M376 303h1M265 305h1M344 305h1M25 321h1M378 324h1M365 343h1M28 352h1M372 352h1M361 358h1M253 371h1M209 393h1" /> -->
<!-- <path stroke="#c0d1ca" d="M230 4h1M370 8h1M319 10h1M124 18h1M77 24h1M301 28h1M265 40h1M46 47h1M320 54h1M363 98h1M359 116h1M35 126h1M12 139h1M343 142h1M397 157h1M378 159h1M336 167h1M56 170h1M340 194h1M399 204h1M74 221h1M344 236h1M58 240h1M384 241h1M384 243h1M9 248h1M396 260h1M52 275h1M58 294h1M60 295h1M377 309h1M394 315h1M124 373h1M379 376h1M322 380h1M387 385h1M28 395h1M255 395h1" /> -->
<!-- <path stroke="#c0d0cb" d="M398 9h1M371 13h1M83 14h1M206 18h1M195 21h1M211 32h1M165 34h1M227 38h1M341 40h1M212 41h1M353 46h1M103 52h1M287 55h1M384 64h1M44 80h1M337 83h1M28 85h1M376 108h1M47 130h1M356 161h1M48 166h1M13 185h1M360 224h1M40 251h1M27 272h1M58 280h1M67 287h1M57 304h1M376 309h1M392 320h1M397 329h1M263 365h1M356 367h1M180 379h1M56 390h1M131 392h1M164 394h1M304 396h1" /> -->
<!-- 가장 밝은 부분-->
<path stroke="#CCDDDD" d="M84 56h1M86 56h228M315 56h1M84 57h232M85 58h1M88 58h224M314 58h1M85 59h1M87 59h226M314 59h1M82 60h1M317 60h1M80 61h1M82 61h2M316 61h2M319 61h1M80 62h4M316 62h4M80 63h4M316 63h4M320 64h4M320 65h4M320 66h4M320 67h4M320 68h4M320 69h4M320 70h4M320 71h4M320 72h4M320 73h4M320 74h4M320 75h4M89 76h3M320 76h4M89 77h1M320 77h4M88 78h4M320 78h4M88 79h4M320 79h4M88 80h4M320 80h4M88 81h4M320 81h4M88 82h4M320 82h4M88 83h4M320 83h4M88 84h4M320 84h4M88 85h4M320 85h4M88 86h4M320 86h4M88 87h4M320 87h4M88 88h4M320 88h4M88 89h4M320 89h4M88 90h4M320 90h4M88 91h4M320 91h4M88 92h4M320 92h4M88 93h4M320 93h4M88 94h4M320 94h4M88 95h4M320 95h4M88 96h4M320 96h4M88 97h4M320 97h4M88 98h4M320 98h4M88 99h4M320 99h4M88 100h4M320 100h4M88 101h4M320 101h4M88 102h4M320 102h4M88 103h4M320 103h4M88 104h4M320 104h4M88 105h4M320 105h4M88 106h4M320 106h4M88 107h4M320 107h4M88 108h4M320 108h4M88 109h4M320 109h4M88 110h4M320 110h4M88 111h4M320 111h4M88 112h4M320 112h4M88 113h4M320 113h4M88 114h4M320 114h4M88 115h4M320 115h4M88 116h4M320 116h4M88 117h4M320 117h4M88 118h4M320 118h4M88 119h4M320 119h4M88 120h4M320 120h4M88 121h4M320 121h4M88 122h4M320 122h4M88 123h4M320 123h4M88 124h4M320 124h4M88 125h4M320 125h4M88 126h4M320 126h4M88 127h4M320 127h4M88 128h4M320 128h4M88 129h4M320 129h4M88 130h4M320 130h4M88 131h4M320 131h4M88 132h4M320 132h4M88 133h4M320 133h4M88 134h4M320 134h4M88 135h4M320 135h4M88 136h4M320 136h4M88 137h4M320 137h4M88 138h4M320 138h4M88 139h4M320 139h4M88 140h4M320 140h4M88 141h4M320 141h4M88 142h4M320 142h4M88 143h4M320 143h4M88 144h4M320 144h4M88 145h4M320 145h4M88 146h4M320 146h4M88 147h4M320 147h4M88 148h4M320 148h4M88 149h4M320 149h4M88 150h4M320 150h4M88 151h4M320 151h4M88 152h4M320 152h4M88 153h4M320 153h4M88 154h4M320 154h4M88 155h4M320 155h4M88 156h4M320 156h4M88 157h4M320 157h4M88 158h4M320 158h4M88 159h4M320 159h3M88 160h1M90 160h2M320 160h4M88 161h4M320 161h4M88 162h4M320 162h4M88 163h4M320 163h4M88 164h4M320 164h4M88 165h4M320 165h4M88 166h4M320 166h4M88 167h4M320 167h4M88 168h4M320 168h4M88 169h4M320 169h4M88 170h4M320 170h4M88 171h4M320 171h4M88 172h4M320 172h4M88 173h4M320 173h4M88 174h4M320 174h4M88 175h4M320 175h1M322 175h2M88 176h4M320 176h4M88 177h4M320 177h4M88 178h4M320 178h4M88 179h4M320 179h4M88 180h4M320 180h4M88 181h4M320 181h4M88 182h4M320 182h4M88 183h4M320 183h4M88 184h4M320 184h4M88 185h4M320 185h4M88 186h4M320 186h4M88 187h4M320 187h4M88 188h4M320 188h4M88 189h4M320 189h4M88 190h2M91 190h1M320 190h4M88 191h4M320 191h4M88 192h4M320 192h4M88 193h4M320 193h4M88 194h4M320 194h4M88 195h4M320 195h4M88 196h4M320 196h4M88 197h4M320 197h4M88 198h4M320 198h4M88 199h4M320 199h4M88 200h4M320 200h4M88 201h4M320 201h4M91 202h1M320 202h4M320 203h4M92 204h1M305 204h3M320 204h4M92 205h1M305 205h1M320 205h4M92 206h4M304 206h4M320 206h4M92 207h4M304 207h4M320 207h4M96 208h208M320 208h4M96 209h208M320 209h4M96 210h130M227 210h77M320 210h4M96 211h102M199 211h89M289 211h15M320 211h4M320 212h4M320 213h4M320 214h4M320 215h4M80 232h12M96 232h12M112 232h80M193 232h131M80 233h12M96 233h12M112 233h212M80 234h8M96 234h12M112 234h141M254 234h70M80 235h10M91 235h1M96 235h12M112 235h212M104 236h4M320 236h4M104 237h4M320 237h4M104 238h4M320 238h4M104 239h4M320 239h4M104 240h4M320 240h4M104 241h4M320 241h4M104 242h4M320 242h4M104 243h4M320 243h4M104 244h4M280 244h2M300 244h1M302 244h2M320 244h4M104 245h4M280 245h1M283 245h1M300 245h1M320 245h4M104 246h4M280 246h4M300 246h3M320 246h4M104 247h4M280 247h4M300 247h4M320 247h4M104 248h4M280 248h4M300 248h4M320 248h4M104 249h4M281 249h2M300 249h3M320 249h4M104 250h1M282 250h1M300 250h1M320 250h4M106 251h1M280 251h1M282 251h1M300 251h1M302 251h2M320 251h4M284 252h1M286 252h1M288 252h1M291 252h1M304 252h2M307 252h1M310 252h1M320 252h4M284 253h1M286 253h1M288 253h4M304 253h6M320 253h4M285 254h1M287 254h5M304 254h1M306 254h6M320 254h4M284 255h8M304 255h8M320 255h4M320 256h4M320 257h4M320 258h4M320 259h4M320 260h4M320 261h4M320 262h4M320 263h4M84 264h61M146 264h22M320 264h4M84 265h3M88 265h80M320 265h4M84 266h1M88 266h12M101 266h67M320 266h4M84 267h1M86 267h82M320 267h4M320 268h4M320 269h4M320 270h4M320 271h4M188 272h3M192 272h4M320 272h4M188 273h8M320 273h4M190 274h1M195 274h1M320 274h4M188 275h3M195 275h1M320 275h4M84 276h1M86 276h82M196 276h1M209 276h3M320 276h4M84 277h1M88 277h80M196 277h1M209 277h1M320 277h4M84 278h3M88 278h27M116 278h52M196 278h4M208 278h4M320 278h4M84 279h84M196 279h4M208 279h4M320 279h4M196 280h3M212 280h40M272 280h40M320 280h4M196 281h4M212 281h39M272 281h7M280 281h32M320 281h4M198 282h1M215 282h1M248 282h2M320 282h4M196 283h3M213 283h1M320 283h4M252 284h1M254 284h18M320 284h4M252 285h1M256 285h16M320 285h4M254 286h18M320 286h4M252 287h20M320 287h4M84 288h84M320 288h4M84 289h3M88 289h80M320 289h4M84 290h1M88 290h80M320 290h4M84 291h1M86 291h82M320 291h4M320 292h4M320 293h4M320 294h4M320 295h4M320 296h4M320 297h4M320 298h4M320 299h3M72 308h256M72 309h28M101 309h227M72 310h256M72 311h68M141 311h49M191 311h137M328 312h2M331 312h1M328 313h4M330 314h1M328 315h1M330 315h1M76 316h8M88 316h8M100 316h8M112 316h8M124 316h8M136 316h8M148 316h8M160 316h8M172 316h8M184 316h8M196 316h8M208 316h8M232 316h8M244 316h8M256 316h8M280 316h8M292 316h8M304 316h8M316 316h6M323 316h1M333 316h1M88 317h8M112 317h8M136 317h8M160 317h8M184 317h8M208 317h8M232 317h8M256 317h8M280 317h8M304 317h8M323 317h1M332 317h2M335 317h1M76 318h1M78 318h4M83 318h1M88 318h8M100 318h1M102 318h4M107 318h1M112 318h8M124 318h1M126 318h4M131 318h1M136 318h8M148 318h1M150 318h4M155 318h1M160 318h8M174 318h4M179 318h1M184 318h8M196 318h1M198 318h4M203 318h1M208 318h8M232 318h8M244 318h1M246 318h4M251 318h1M256 318h8M280 318h8M292 318h1M294 318h4M299 318h1M304 318h8M316 318h1M318 318h2M321 318h3M332 318h4M76 319h8M88 319h8M100 319h8M112 319h8M124 319h8M136 319h8M148 319h8M160 319h8M172 319h8M184 319h8M196 319h8M208 319h8M232 319h8M244 319h8M256 319h8M280 319h8M292 319h8M304 319h8M316 319h8M332 319h4M336 320h2M339 320h1M336 321h4M338 322h1M336 323h1M338 323h1M68 324h6M75 324h1M84 324h4M96 324h2M99 324h1M108 324h4M120 324h2M123 324h1M132 324h4M144 324h2M147 324h1M156 324h4M168 324h2M171 324h1M180 324h4M192 324h2M195 324h1M204 324h4M252 324h4M288 324h4M300 324h1M302 324h2M312 324h4M324 324h1M326 324h4M331 324h1M341 324h1M81 325h1M94 325h2M105 325h1M118 325h2M129 325h1M142 325h2M153 325h1M166 325h2M177 325h1M190 325h2M201 325h1M249 325h1M294 325h1M304 325h2M318 325h1M331 325h1M340 325h2M343 325h1M68 326h1M71 326h5M80 326h6M87 326h1M92 326h8M104 326h6M111 326h1M116 326h8M128 326h6M135 326h1M140 326h8M152 326h6M159 326h1M164 326h8M176 326h6M183 326h1M188 326h8M200 326h6M207 326h9M248 326h6M255 326h1M288 326h1M290 326h6M300 326h8M312 326h1M314 326h6M324 326h4M329 326h3M340 326h4M68 327h8M80 327h7M92 327h8M104 327h7M116 327h8M128 327h7M140 327h8M152 327h7M164 327h8M176 327h7M188 327h8M200 327h7M208 327h8M248 327h7M289 327h7M300 327h8M313 327h7M324 327h8M340 327h4M328 328h7M344 328h2M347 328h1M328 329h8M344 329h4M329 330h2M332 330h4M346 330h1M332 331h2M335 331h1M344 331h1M346 331h1M60 332h6M67 332h1M76 332h4M88 332h2M91 332h1M100 332h4M112 332h4M124 332h4M136 332h4M148 332h4M160 332h4M172 332h1M174 332h2M184 332h4M196 332h1M198 332h2M240 332h8M256 332h4M264 332h8M296 332h4M308 332h1M310 332h2M320 332h4M332 332h6M339 332h1M349 332h1M73 333h1M86 333h2M97 333h1M118 333h1M121 333h1M142 333h1M145 333h1M166 333h1M176 333h2M190 333h1M200 333h2M240 333h8M254 333h2M264 333h8M302 333h1M312 333h2M326 333h1M332 333h4M339 333h1M348 333h2M351 333h1M60 334h1M62 334h6M72 334h6M79 334h1M84 334h8M96 334h6M103 334h10M114 334h12M127 334h10M138 334h12M151 334h10M162 334h6M172 334h8M184 334h1M186 334h6M196 334h8M208 334h8M240 334h8M252 334h6M259 334h1M264 334h8M296 334h1M298 334h6M308 334h8M320 334h1M322 334h6M332 334h4M337 334h3M348 334h4M60 335h8M72 335h7M84 335h8M96 335h7M104 335h8M113 335h14M128 335h8M137 335h14M152 335h8M161 335h7M172 335h8M185 335h7M196 335h8M208 335h8M240 335h8M252 335h8M264 335h8M297 335h7M308 335h4M313 335h3M321 335h7M332 335h8M348 335h4M352 336h4M352 337h4M352 338h4M352 339h3M52 340h8M68 340h4M80 340h4M92 340h4M168 340h4M180 340h4M192 340h4M204 340h4M216 340h24M248 340h4M260 340h4M272 340h24M304 340h4M316 340h4M328 340h4M340 340h15M357 340h3M49 341h1M62 341h1M65 341h1M86 341h1M89 341h1M174 341h1M177 341h1M198 341h1M201 341h1M216 341h24M254 341h1M257 341h1M272 341h24M310 341h1M313 341h1M334 341h1M337 341h1M344 341h10M355 341h5M45 342h9M55 342h2M58 342h12M71 342h10M82 342h12M95 342h74M170 342h12M183 342h10M194 342h12M207 342h42M250 342h12M263 342h42M306 342h12M319 342h10M330 342h12M343 342h17M44 343h11M57 343h14M72 343h8M81 343h14M96 343h72M169 343h14M184 343h8M193 343h14M208 343h40M249 343h14M264 343h40M305 343h14M320 343h8M329 343h3M333 343h10M344 343h7M352 343h8M360 344h4M360 345h4M360 346h4M360 347h4M360 348h4M360 349h4M360 350h4M360 351h4M360 352h4M360 353h4M360 354h4M360 355h3" />
<path stroke="#CCDDDD" d="M84 58h1M86 58h2M312 58h2M315 58h1M88 77h1M90 77h2M88 202h1M90 202h1M94 205h1M307 205h1M88 234h4M282 245h1M301 245h3M280 250h2M283 250h1M301 250h3M289 252h1M286 254h1M188 274h2M191 274h4M85 277h3M197 277h3M208 277h1M210 277h2M196 282h2M199 282h1M254 285h2M328 314h2M331 314h1M76 317h8M100 317h8M124 317h8M148 317h8M172 317h8M196 317h8M244 317h8M292 317h8M316 317h7M336 322h2M339 322h1M68 325h8M84 325h4M96 325h4M108 325h4M120 325h4M132 325h4M144 325h4M156 325h4M168 325h4M180 325h4M192 325h4M204 325h4M252 325h4M288 325h4M300 325h4M312 325h4M324 325h7M344 330h2M347 330h1M60 333h8M76 333h4M88 333h4M100 333h4M112 333h4M124 333h4M136 333h4M148 333h4M160 333h4M172 333h4M184 333h4M196 333h4M256 333h4M296 333h4M308 333h4M320 333h4M336 333h3M52 341h8M68 341h4M80 341h4M92 341h4M168 341h4M180 341h4M192 341h4M204 341h4M248 341h4M260 341h4M304 341h4M316 341h4M328 341h4M340 341h4" />
<path stroke="#BBDDDD" d="M85 56h1M314 56h1M330 312h1M338 320h1M346 328h1M45 340h2" />
<path stroke="#BBDDDD" d="M84 59h1M315 59h1M83 60h1M316 60h1M283 249h1M331 315h1M332 316h1M339 323h1M347 331h1M348 332h1" />
<path stroke="#CCDDDD" d="M86 59h1M313 59h1M80 60h2M318 60h2M88 76h1M88 203h3M93 204h3M304 204h1M90 235h1M283 244h1M301 244h1M303 246h1M303 249h1M281 251h1M283 251h1M301 251h1M285 253h1M305 254h1M87 265h1M191 275h4M85 276h1M197 276h3M208 276h1M87 278h1M199 283h1M253 284h1M253 286h1M87 289h1M329 315h1M322 316h1M334 316h2M77 318h1M82 318h1M101 318h1M106 318h1M125 318h1M130 318h1M149 318h1M154 318h1M173 318h1M178 318h1M197 318h1M202 318h1M245 318h1M250 318h1M293 318h1M298 318h1M317 318h1M320 318h1M337 323h1M74 324h1M98 324h1M122 324h1M146 324h1M170 324h1M194 324h1M301 324h1M325 324h1M330 324h1M342 324h2M69 326h1M86 326h1M110 326h1M134 326h1M158 326h1M182 326h1M206 326h1M254 326h1M289 326h1M313 326h1M328 326h1M345 331h1M66 332h1M90 332h1M173 332h1M197 332h1M309 332h1M338 332h1M350 332h2M61 334h1M78 334h1M102 334h1M113 334h1M126 334h1M137 334h1M150 334h1M161 334h1M185 334h1M258 334h1M297 334h1M321 334h1M336 334h1M54 342h1M57 342h1M70 342h1M81 342h1M94 342h1M169 342h1M182 342h1M193 342h1M206 342h1M249 342h1M262 342h1M305 342h1M318 342h1M329 342h1M342 342h1" />
<path stroke="#CCDDDD" d="M81 61h1M318 61h1M282 244h1M290 252h1M306 252h1M216 282h32M250 282h1M272 282h40M252 286h1M334 317h1M82 325h1M106 325h1M130 325h1M154 325h1M178 325h1M202 325h1M208 325h8M250 325h1M293 325h1M317 325h1M342 325h1M334 331h1M74 333h1M98 333h1M104 333h8M117 333h1M122 333h1M128 333h8M141 333h1M146 333h1M152 333h8M165 333h1M189 333h1M208 333h8M301 333h1M325 333h1M350 333h1M45 341h1M47 341h1M50 341h1M61 341h1M66 341h1M72 341h8M85 341h1M90 341h1M96 341h72M173 341h1M178 341h1M184 341h8M197 341h1M202 341h1M208 341h8M240 341h8M253 341h1M258 341h1M264 341h8M296 341h8M309 341h1M314 341h1M320 341h8M333 341h1M338 341h1" />
<path stroke="#CCDDDD" d="M323 159h1M321 175h1M115 278h1M140 311h1M172 318h1" />
<path stroke="#CCDDDD" d="M89 160h1M226 210h1M288 211h1M253 234h1M100 266h1M279 281h1M100 309h1M190 311h1M70 326h1M332 343h1" />
<path stroke="#CCDDDD" d="M90 190h1M198 211h1M192 232h1M280 249h1M145 264h1M312 335h1M351 343h1" />
<path stroke="#CCDDDD" d="M89 202h1M281 245h1" />
<path stroke="#CCDDDD" d="M91 203h1M105 251h1M287 252h1M310 253h2M191 272h1M199 280h1M251 281h1M214 283h1M93 324h1M95 324h1M117 324h1M119 324h1M141 324h1M143 324h1M165 324h1M167 324h1M189 324h1M191 324h1M304 324h1M306 324h1M87 327h1M111 327h1M135 327h1M159 327h1M183 327h1M207 327h1M255 327h1M288 327h1M312 327h1M335 328h1M328 331h1M330 331h1M85 332h1M87 332h1M176 332h1M178 332h1M200 332h1M202 332h1M253 332h1M255 332h1M312 332h1M314 332h1M79 335h1M103 335h1M112 335h1M127 335h1M136 335h1M151 335h1M160 335h1M184 335h1M296 335h1M320 335h1M47 340h1M44 342h1M55 343h2M71 343h1M80 343h1M95 343h1M168 343h1M183 343h1M192 343h1M207 343h1M248 343h1M263 343h1M304 343h1M319 343h1M328 343h1M343 343h1" />
<path stroke="#CCDDDD" d="M96 332h1M113 340h1" />
<path stroke="#CCDDDD" d="M355 340h1M354 341h1" />
<path stroke="#CCDDDD" d="M105 250h1M214 282h1M92 325h1M116 325h1M140 325h1M164 325h1M188 325h1M307 325h1M331 330h1M84 333h1M179 333h1M203 333h1M252 333h1M315 333h1" />
<path stroke="#CCDDDD" d="M106 250h2M308 252h2M311 252h1M287 253h1M284 254h1M212 282h2M251 282h1M80 325h1M83 325h1M93 325h1M104 325h1M107 325h1M117 325h1M128 325h1M131 325h1M141 325h1M152 325h1M155 325h1M165 325h1M176 325h1M179 325h1M189 325h1M200 325h1M203 325h1M248 325h1M251 325h1M292 325h1M295 325h1M306 325h1M316 325h1M319 325h1M328 330h1M72 333h1M75 333h1M85 333h1M96 333h1M99 333h1M116 333h1M119 333h2M123 333h1M140 333h1M143 333h2M147 333h1M164 333h1M167 333h1M178 333h1M188 333h1M191 333h1M202 333h1M253 333h1M300 333h1M303 333h1M314 333h1M324 333h1M327 333h1M44 341h1M46 341h1M48 341h1M51 341h1M60 341h1M63 341h2M67 341h1M84 341h1M87 341h2M91 341h1M172 341h1M175 341h2M179 341h1M196 341h1M199 341h2M203 341h1M252 341h1M255 341h2M259 341h1M308 341h1M311 341h2M315 341h1M332 341h1M335 341h2M339 341h1" />
<path stroke="#CCDDDD" d="M104 251h1M107 251h1M212 283h1M215 283h36M272 283h40M80 324h4M92 324h1M94 324h1M104 324h4M116 324h1M118 324h1M128 324h4M140 324h1M142 324h1M152 324h4M164 324h1M166 324h1M176 324h4M188 324h1M190 324h1M200 324h4M208 324h8M248 324h4M292 324h4M305 324h1M307 324h1M316 324h4M329 331h1M331 331h1M72 332h4M84 332h1M86 332h1M97 332h3M104 332h8M116 332h8M128 332h8M140 332h8M152 332h8M164 332h4M177 332h1M179 332h1M188 332h4M201 332h1M203 332h1M208 332h8M252 332h1M254 332h1M300 332h4M313 332h1M315 332h1M324 332h4M44 340h1M48 340h4M60 340h8M72 340h8M84 340h8M96 340h17M114 340h54M172 340h8M184 340h8M196 340h8M208 340h8M240 340h8M252 340h8M264 340h8M296 340h8M308 340h8M320 340h8M332 340h8" />
<path stroke="#CCDDDD" d="M93 205h1M95 205h1M285 252h1M85 266h1M87 266h1M253 285h1M85 290h1M87 290h1" />
<path stroke="#BBCCCC" d="M304 205h1M306 205h1M86 266h1M86 290h1" />
<path stroke="#BBCCCC" d="M340 324h1" />
<!-- <path stroke="#c0d0cd" d="M81 59h1M318 59h1M309 225h1M334 315h1M342 323h1M350 331h1" /> -->
<!-- <path stroke="#c1d0cd" d="M83 59h1M316 59h1M332 315h1M340 323h1M348 331h1" /> -->
<!-- 메인 프레임-->
<path stroke="#99BBCC" d="M84 60h1M315 60h1M96 67h208M308 75h1M88 219h81M170 219h27M198 219h114M319 240h1M292 243h1M315 243h1M96 251h8M92 252h1M110 252h1M292 252h1M315 252h1M88 255h1M319 255h1M248 264h1M252 267h1M256 267h16M319 272h1M184 275h1M315 275h1M188 283h1M191 283h2M184 284h1M187 284h1M209 284h1M315 284h1M319 287h1M252 292h1M256 292h16M248 295h1M80 299h240M224 312h1M272 312h1M72 315h1M74 315h1M85 315h1M87 315h1M96 315h1M98 315h1M109 315h1M111 315h1M120 315h1M122 315h1M133 315h1M135 315h1M144 315h1M146 315h1M157 315h1M159 315h1M168 315h1M170 315h1M181 315h1M183 315h1M192 315h1M194 315h1M205 315h1M207 315h1M228 315h1M240 315h1M242 315h1M253 315h1M255 315h1M276 315h1M288 315h1M290 315h1M301 315h1M303 315h1M312 315h1M314 315h1M331 316h1M64 323h1M66 323h1M232 324h8M256 324h8M282 324h2M339 324h1M232 328h1M56 331h1M58 331h1M236 331h1M261 331h1M263 331h1M290 332h2M347 332h1M40 355h320" />
<path stroke="#99BBCC" d="M85 60h2M88 60h224M313 60h2M88 61h224M84 62h232M84 63h75M160 63h156M80 64h10M91 64h229M80 65h240M80 66h240M80 67h16M304 67h16M80 68h16M304 68h16M80 69h16M304 69h16M80 70h16M304 70h16M80 71h16M304 71h16M80 72h12M308 72h12M80 73h12M308 73h12M80 74h8M89 74h1M311 74h9M80 75h8M89 75h1M91 75h1M312 75h8M80 76h8M312 76h7M80 77h8M312 77h8M80 78h8M312 78h8M80 79h8M312 79h8M80 80h7M312 80h8M80 81h8M312 81h8M80 82h8M312 82h8M80 83h8M312 83h8M80 84h8M312 84h8M80 85h8M312 85h8M80 86h8M312 86h8M80 87h8M312 87h2M315 87h5M80 88h8M312 88h8M80 89h8M312 89h8M80 90h8M312 90h8M80 91h8M312 91h8M80 92h8M312 92h8M80 93h8M312 93h8M80 94h8M312 94h8M80 95h8M312 95h8M80 96h8M312 96h8M80 97h8M312 97h8M80 98h8M312 98h8M80 99h8M312 99h8M80 100h8M312 100h8M80 101h8M312 101h8M80 102h8M312 102h8M80 103h8M312 103h8M80 104h8M312 104h8M80 105h8M312 105h8M80 106h8M312 106h8M80 107h8M312 107h8M80 108h8M312 108h8M80 109h8M312 109h8M80 110h8M312 110h8M80 111h8M312 111h8M80 112h8M312 112h8M80 113h8M312 113h8M80 114h8M312 114h8M80 115h8M312 115h8M80 116h8M312 116h8M80 117h8M312 117h8M80 118h8M312 118h8M80 119h8M312 119h8M80 120h8M312 120h8M80 121h8M312 121h8M80 122h8M312 122h8M80 123h8M312 123h8M80 124h8M312 124h8M80 125h8M312 125h8M80 126h8M312 126h7M80 127h8M312 127h8M80 128h8M312 128h8M80 129h8M312 129h7M80 130h8M312 130h8M80 131h8M312 131h8M80 132h8M312 132h8M80 133h8M312 133h8M80 134h8M312 134h8M80 135h8M312 135h8M80 136h8M312 136h8M80 137h8M312 137h8M80 138h8M312 138h8M80 139h8M312 139h8M80 140h8M312 140h8M80 141h8M312 141h8M80 142h8M312 142h8M80 143h8M312 143h8M80 144h8M312 144h8M80 145h8M312 145h8M80 146h8M312 146h8M80 147h8M312 147h8M80 148h8M312 148h8M80 149h8M312 149h8M80 150h8M312 150h8M80 151h8M312 151h8M80 152h8M312 152h8M80 153h8M312 153h8M80 154h8M312 154h8M80 155h8M312 155h1M314 155h6M80 156h8M312 156h8M80 157h8M312 157h8M80 158h8M312 158h8M80 159h8M312 159h8M80 160h8M312 160h8M80 161h8M312 161h8M80 162h8M312 162h8M80 163h8M312 163h8M80 164h8M312 164h8M80 165h8M312 165h8M80 166h8M312 166h8M80 167h8M312 167h8M80 168h8M312 168h8M80 169h8M312 169h8M80 170h8M312 170h8M80 171h8M312 171h8M80 172h8M312 172h8M80 173h8M312 173h8M80 174h8M312 174h8M80 175h8M312 175h8M80 176h8M312 176h8M80 177h8M312 177h8M80 178h8M312 178h8M80 179h8M312 179h8M80 180h8M312 180h8M80 181h8M312 181h8M80 182h8M312 182h8M80 183h8M312 183h8M80 184h8M312 184h8M80 185h8M312 185h8M80 186h8M312 186h8M80 187h8M312 187h8M80 188h8M312 188h8M80 189h8M312 189h3M316 189h4M80 190h8M312 190h8M80 191h8M312 191h8M80 192h8M312 192h8M80 193h8M312 193h8M80 194h8M312 194h8M80 195h8M312 195h8M80 196h8M312 196h8M80 197h7M312 197h8M80 198h8M312 198h8M80 199h8M312 199h8M80 200h8M312 200h8M80 201h8M312 201h8M80 202h8M312 202h8M80 203h8M312 203h8M80 204h8M91 204h1M308 204h1M312 204h8M80 205h8M91 205h1M308 205h1M310 205h1M312 205h8M80 206h12M308 206h12M80 207h12M308 207h12M80 208h16M304 208h16M80 209h16M304 209h16M80 210h16M304 210h16M80 211h16M304 211h7M312 211h8M80 212h240M80 213h240M80 214h78M159 214h131M291 214h29M80 215h240M84 216h232M85 217h230M85 218h1M87 218h114M202 218h111M314 218h1M80 236h8M89 236h1M91 236h1M96 236h8M112 236h208M80 237h8M89 237h1M96 237h8M112 237h208M80 238h8M89 238h3M96 238h8M112 238h208M80 239h12M96 239h8M112 239h208M80 240h12M96 240h8M112 240h172M292 240h7M300 240h4M312 240h7M80 241h12M96 241h8M112 241h172M292 241h2M295 241h9M312 241h8M80 242h12M96 242h8M112 242h168M296 242h4M302 242h1M313 242h2M316 242h4M80 243h12M96 243h8M112 243h172M293 243h1M296 243h5M302 243h2M316 243h4M80 244h12M96 244h8M112 244h168M296 244h4M316 244h4M80 245h12M96 245h8M112 245h168M296 245h4M316 245h4M80 246h12M96 246h8M112 246h168M296 246h4M316 246h4M80 247h12M96 247h8M112 247h168M296 247h4M316 247h4M80 248h12M96 248h8M112 248h168M296 248h4M316 248h4M80 249h12M96 249h8M112 249h35M148 249h17M166 249h108M275 249h5M296 249h4M316 249h4M80 250h12M96 250h8M112 250h168M296 250h4M316 250h4M80 251h12M112 251h168M296 251h4M316 251h4M80 252h12M112 252h120M233 252h47M282 252h1M296 252h5M302 252h2M316 252h4M80 253h12M93 253h2M111 253h128M240 253h41M282 253h1M293 253h1M296 253h4M302 253h1M313 253h2M316 253h4M80 254h16M108 254h80M189 254h91M281 254h2M292 254h12M312 254h8M80 255h8M89 255h7M108 255h176M292 255h7M300 255h4M312 255h7M80 256h63M144 256h176M80 257h240M80 258h99M180 258h140M80 259h149M230 259h90M80 260h240M80 261h240M80 262h240M80 263h240M80 264h4M168 264h24M193 264h37M231 264h17M249 264h71M80 265h4M168 265h152M80 266h4M168 266h84M253 266h2M256 266h46M303 266h17M80 267h3M168 267h84M272 267h48M80 268h3M168 268h84M272 268h25M298 268h22M80 269h3M168 269h84M272 269h48M80 270h4M168 270h84M272 270h48M80 271h3M168 271h3M172 271h80M272 271h48M80 272h3M84 272h104M196 272h16M312 272h7M80 273h108M196 273h16M312 273h8M80 274h4M86 274h1M88 274h96M185 274h1M196 274h1M200 274h8M209 274h1M313 274h2M316 274h4M80 275h5M86 275h7M94 275h90M196 275h1M200 275h8M209 275h1M211 275h1M316 275h4M80 276h4M168 276h16M188 276h1M190 276h1M195 276h1M200 276h8M316 276h4M80 277h4M168 277h16M190 277h1M195 277h1M200 277h8M316 277h4M80 278h4M168 278h16M188 278h8M200 278h8M316 278h4M80 279h4M168 279h16M188 279h8M200 279h8M316 279h4M80 280h4M168 280h16M188 280h8M200 280h8M316 280h4M80 281h4M168 281h16M188 281h8M200 281h8M316 281h4M80 282h4M168 282h16M193 282h1M200 282h8M316 282h4M80 283h3M168 283h16M200 283h8M316 283h4M80 284h4M85 284h1M87 284h97M196 284h1M198 284h1M200 284h8M316 284h4M80 285h5M86 285h1M88 285h96M198 285h1M200 285h9M313 285h2M316 285h4M80 286h4M85 286h1M88 286h100M196 286h16M312 286h8M80 287h77M158 287h30M196 287h16M312 287h7M80 288h4M168 288h84M272 288h48M80 289h4M168 289h84M272 289h48M80 290h4M168 290h29M198 290h54M272 290h48M80 291h3M168 291h84M272 291h48M80 292h3M168 292h84M272 292h48M80 293h3M168 293h84M253 293h2M256 293h64M80 294h4M168 294h152M80 295h3M168 295h80M249 295h71M80 296h133M214 296h106M80 297h240M80 298h240M72 312h7M81 312h22M105 312h22M129 312h22M153 312h22M177 312h3M181 312h18M201 312h23M225 312h22M249 312h23M273 312h22M297 312h22M320 312h4M325 312h3M72 313h5M78 313h4M83 313h18M102 313h4M107 313h18M126 313h4M131 313h18M150 313h4M155 313h18M174 313h4M179 313h18M198 313h4M203 313h42M246 313h4M251 313h29M281 313h12M294 313h4M299 313h18M318 313h10M73 314h2M85 314h2M88 314h8M97 314h2M109 314h2M112 314h8M121 314h2M133 314h2M136 314h8M145 314h2M157 314h2M160 314h8M169 314h2M181 314h2M184 314h8M193 314h2M205 314h2M208 314h20M229 314h2M232 314h8M241 314h2M253 314h2M256 314h20M277 314h2M280 314h8M289 314h2M301 314h2M304 314h8M313 314h2M321 314h1M324 314h4M76 315h1M78 315h4M83 315h1M88 315h8M100 315h1M102 315h4M107 315h1M112 315h8M124 315h1M126 315h4M131 315h1M136 315h8M148 315h1M150 315h4M155 315h1M160 315h8M172 315h1M174 315h4M179 315h1M184 315h8M196 315h1M198 315h4M203 315h1M208 315h20M232 315h8M244 315h1M246 315h4M251 315h1M256 315h20M280 315h8M292 315h1M294 315h4M299 315h1M304 315h8M316 315h1M318 315h4M323 315h5M216 316h12M264 316h12M324 316h4M329 316h2M69 317h1M71 317h1M216 317h12M264 317h12M324 317h4M69 318h3M216 318h12M264 318h12M324 318h8M68 319h4M216 319h12M264 319h12M324 319h8M64 320h2M67 320h4M72 320h4M84 320h4M96 320h4M108 320h4M120 320h4M132 320h4M144 320h4M156 320h4M168 320h4M180 320h4M192 320h4M204 320h4M216 320h16M240 320h4M252 320h4M264 320h16M288 320h4M300 320h4M312 320h4M324 320h8M333 320h3M64 321h5M70 321h2M73 321h3M84 321h2M87 321h1M97 321h3M108 321h2M111 321h1M121 321h3M132 321h2M135 321h1M145 321h3M156 321h2M159 321h1M169 321h3M180 321h2M183 321h1M193 321h3M204 321h2M207 321h1M216 321h16M240 321h4M252 321h2M255 321h1M264 321h16M288 321h1M290 321h2M300 321h3M312 321h1M314 321h2M324 321h3M328 321h8M65 322h2M73 322h1M86 322h1M97 322h1M110 322h1M121 322h1M134 322h1M145 322h1M158 322h1M169 322h1M182 322h1M193 322h1M206 322h1M216 322h16M240 322h4M254 322h1M264 322h16M289 322h1M302 322h1M313 322h1M326 322h1M329 322h1M332 322h4M68 323h1M70 323h2M73 323h1M75 323h1M84 323h4M97 323h1M99 323h1M108 323h4M121 323h1M123 323h1M132 323h4M145 323h1M147 323h1M156 323h4M169 323h1M171 323h1M180 323h4M193 323h1M195 323h1M204 323h4M216 323h16M240 323h4M252 323h4M264 323h16M288 323h4M300 323h1M302 323h1M312 323h1M314 323h2M324 323h1M326 323h1M328 323h2M331 323h5M216 324h16M240 324h4M264 324h16M332 324h4M337 324h2M61 325h1M63 325h1M216 325h28M256 325h26M332 325h4M61 326h3M216 326h28M256 326h28M332 326h8M60 327h4M216 327h28M256 327h28M332 327h8M56 328h7M64 328h4M76 328h4M88 328h4M100 328h4M112 328h4M124 328h4M136 328h4M148 328h4M160 328h4M172 328h4M184 328h4M196 328h4M216 328h16M233 328h15M257 328h31M296 328h4M308 328h4M320 328h4M336 328h4M341 328h3M56 329h5M62 329h2M65 329h3M76 329h2M79 329h1M89 329h3M100 329h2M103 329h1M112 329h1M114 329h2M124 329h2M127 329h1M136 329h1M138 329h2M148 329h2M151 329h1M160 329h1M162 329h2M172 329h3M184 329h1M186 329h2M196 329h3M216 329h32M256 329h2M259 329h29M296 329h1M298 329h2M308 329h3M320 329h1M322 329h2M336 329h8M57 330h2M65 330h1M78 330h1M89 330h1M102 330h1M113 330h1M126 330h1M137 330h1M150 330h1M161 330h1M174 330h1M185 330h1M198 330h1M216 330h20M237 330h2M240 330h8M261 330h2M264 330h24M297 330h1M310 330h1M321 330h1M337 330h1M340 330h4M60 331h1M62 331h2M65 331h1M67 331h1M76 331h4M89 331h1M91 331h1M100 331h4M112 331h4M124 331h4M136 331h4M148 331h4M160 331h4M172 331h1M174 331h1M184 331h4M196 331h1M198 331h1M216 331h20M240 331h8M256 331h2M259 331h1M264 331h24M296 331h4M308 331h1M310 331h1M320 331h4M336 331h2M339 331h5M216 332h20M272 332h16M340 332h4M345 332h2M53 333h1M55 333h1M216 333h20M272 333h18M340 333h4M53 334h3M216 334h20M272 334h20M340 334h8M52 335h4M216 335h20M272 335h1M274 335h18M340 335h8M52 336h8M68 336h4M80 336h4M92 336h4M168 336h4M180 336h4M192 336h4M204 336h4M216 336h24M248 336h4M260 336h4M272 336h24M304 336h4M316 336h4M328 336h4M340 336h12M52 337h2M55 337h2M58 337h2M68 337h2M71 337h1M80 337h1M82 337h2M92 337h2M95 337h1M168 337h1M170 337h2M180 337h2M183 337h1M192 337h1M194 337h2M204 337h2M207 337h1M216 337h24M248 337h1M250 337h2M260 337h2M263 337h1M272 337h24M304 337h1M306 337h2M316 337h2M319 337h1M328 337h1M330 337h2M340 337h2M343 337h9M54 338h1M57 338h1M70 338h1M81 338h1M94 338h1M169 338h1M182 338h1M193 338h1M206 338h1M216 338h24M249 338h1M262 338h1M272 338h24M305 338h1M318 338h1M329 338h1M342 338h1M344 338h8M52 339h8M68 339h4M80 339h4M92 339h4M168 339h4M180 339h4M192 339h4M204 339h4M216 339h24M248 339h4M260 339h4M272 339h24M304 339h4M316 339h4M328 339h4M340 339h12M40 344h320M40 345h320M40 346h209M250 346h110M40 347h320M40 348h230M271 348h89M40 349h320M40 350h216M257 350h103M40 351h320M40 352h320M40 353h320M40 354h320" />
<path stroke="#99BBCC" d="M87 60h1M312 60h1M88 75h1M90 75h1M88 204h1M90 204h1M88 236h1M90 236h1M88 238h1M299 240h1M301 243h1M109 252h1M280 252h2M283 252h1M301 252h1M280 254h1M299 255h1M83 271h1M83 272h1M85 275h1M197 275h3M208 275h1M210 275h1M189 276h1M191 276h4M197 284h1M199 284h1M210 284h1M83 295h1M324 312h1M77 313h1M82 313h1M101 313h1M106 313h1M125 313h1M130 313h1M149 313h1M154 313h1M173 313h1M178 313h1M197 313h1M202 313h1M245 313h1M250 313h1M293 313h1M298 313h1M317 313h1M77 315h1M82 315h1M101 315h1M106 315h1M125 315h1M130 315h1M149 315h1M154 315h1M173 315h1M178 315h1M197 315h1M202 315h1M245 315h1M250 315h1M293 315h1M298 315h1M317 315h1M322 315h1M328 316h1M332 320h1M69 321h1M72 321h1M86 321h1M96 321h1M110 321h1M120 321h1M134 321h1M144 321h1M158 321h1M168 321h1M182 321h1M192 321h1M206 321h1M254 321h1M289 321h1M303 321h1M313 321h1M327 321h1M69 323h1M72 323h1M74 323h1M96 323h1M98 323h1M120 323h1M122 323h1M144 323h1M146 323h1M168 323h1M170 323h1M192 323h1M194 323h1M301 323h1M303 323h1M325 323h1M327 323h1M330 323h1M336 324h1M340 328h1M61 329h1M64 329h1M78 329h1M88 329h1M102 329h1M113 329h1M126 329h1M137 329h1M150 329h1M161 329h1M175 329h1M185 329h1M199 329h1M258 329h1M297 329h1M311 329h1M321 329h1M61 331h1M64 331h1M66 331h1M88 331h1M90 331h1M173 331h1M175 331h1M197 331h1M199 331h1M258 331h1M309 331h1M311 331h1M338 331h1M344 332h1M54 337h1M57 337h1M70 337h1M81 337h1M94 337h1M169 337h1M182 337h1M193 337h1M206 337h1M249 337h1M262 337h1M305 337h1M318 337h1M329 337h1M342 337h1" />
<path stroke="#99BBCC" d="M84 61h1M86 61h2M312 61h2M315 61h1M88 74h1M90 74h2M309 74h1M88 205h3M88 237h1M90 237h2M280 242h4M292 242h1M300 242h2M303 242h1M281 253h1M283 253h1M295 253h1M300 253h2M303 253h1M84 274h2M87 274h1M186 274h1M197 274h3M208 274h1M210 274h2M188 277h2M191 277h4M194 282h1M196 285h2M199 285h1M76 314h8M100 314h8M124 314h8M148 314h8M172 314h8M196 314h8M244 314h8M292 314h8M316 314h5M322 314h2M328 317h2M331 317h1M68 322h5M74 322h2M84 322h2M87 322h1M96 322h1M98 322h2M108 322h2M111 322h1M120 322h1M122 322h2M132 322h2M135 322h1M144 322h1M146 322h2M156 322h2M159 322h1M168 322h1M170 322h2M180 322h2M183 322h1M192 322h1M194 322h2M204 322h2M207 322h1M252 322h2M255 322h1M288 322h1M290 322h2M300 322h2M303 322h1M312 322h1M314 322h2M324 322h2M327 322h2M330 322h2M336 325h2M339 325h1M60 330h5M66 330h2M76 330h2M79 330h1M88 330h1M90 330h2M100 330h2M103 330h1M112 330h1M114 330h2M124 330h2M127 330h1M136 330h1M138 330h2M148 330h2M151 330h1M160 330h1M162 330h2M172 330h2M175 330h1M184 330h1M186 330h2M196 330h2M199 330h1M256 330h4M296 330h1M298 330h2M308 330h2M311 330h1M320 330h1M322 330h2M336 330h1M338 330h2M344 333h2M347 333h1M52 338h2M55 338h2M58 338h2M68 338h2M71 338h1M80 338h1M82 338h2M92 338h2M95 338h1M168 338h1M170 338h2M180 338h2M183 338h1M192 338h1M194 338h2M204 338h2M207 338h1M248 338h1M250 338h2M260 338h2M263 338h1M304 338h1M306 338h2M316 338h2M319 338h1M328 338h1M330 338h2M340 338h2M343 338h1" />
<path stroke="#99BBCC" d="M85 61h1M314 61h1M159 63h1M310 204h1M311 211h1M84 217h1M315 217h1M294 241h1M294 243h1M274 249h1M232 252h1M294 252h2M239 253h1M283 254h1M229 259h1M230 264h1M302 266h1M83 268h1M185 275h3M83 283h1M193 283h3M85 285h1M87 285h1M83 292h1M79 312h2M103 312h2M127 312h2M151 312h2M175 312h2M199 312h2M247 312h2M295 312h2M319 312h1M330 317h1M68 318h1M66 320h1M71 320h1M313 323h1M338 325h1M60 326h1M63 328h1M256 328h1M346 333h1M52 334h1M270 348h1M256 350h1" />
<path stroke="#99BBCC" d="M308 74h1M309 205h1M312 242h1M315 242h1M92 253h1M95 253h1M312 253h1M315 253h1M252 266h1M255 266h1M312 274h1M315 274h1M188 282h3M185 285h3M312 285h1M315 285h1M252 293h1M255 293h1M228 314h1M231 314h1M276 314h1M279 314h1M283 325h1M236 330h1M239 330h1M291 333h1" />
<path stroke="#99BBCC" d="M310 74h1" />
<path stroke="#99BBCC" d="M90 64h1M319 76h1M319 129h1M313 155h1M315 189h1M158 214h1M147 249h1M188 254h1M179 258h1M171 271h1M157 287h1M213 296h1M180 312h1M280 313h1M273 335h1M249 346h1" />
<path stroke="#99BBCC" d="M309 75h1M86 219h1M313 219h1M295 243h1M189 283h1M186 284h1M70 316h1M62 324h1M54 332h1" />
<path stroke="#99BBCC" d="M310 75h2M311 204h1M87 219h1M312 219h1M312 243h3M93 252h3M108 252h1M111 252h1M312 252h3M253 267h3M312 275h3M190 283h1M185 284h1M208 284h1M211 284h1M312 284h3M253 292h3M73 315h1M75 315h1M84 315h1M86 315h1M97 315h1M99 315h1M108 315h1M110 315h1M121 315h1M123 315h1M132 315h1M134 315h1M145 315h1M147 315h1M156 315h1M158 315h1M169 315h1M171 315h1M180 315h1M182 315h1M193 315h1M195 315h1M204 315h1M206 315h1M229 315h3M241 315h1M243 315h1M252 315h1M254 315h1M277 315h3M289 315h1M291 315h1M300 315h1M302 315h1M313 315h1M315 315h1M71 316h1M65 323h1M67 323h1M63 324h1M280 324h2M57 331h1M59 331h1M237 331h3M260 331h1M262 331h1M55 332h1M288 332h2" />
<path stroke="#99BBCC" d="M87 80h1M314 87h1M319 126h1M87 197h1M290 214h1M201 218h1M165 249h1M143 256h1M192 264h1M297 268h1M93 275h1M197 290h1" />
<path stroke="#99BBCC" d="M89 204h1" />
<path stroke="#99BBCC" d="M309 204h1M84 219h1M315 219h1M68 316h1M60 324h1M52 332h1" />
<path stroke="#99BBCC" d="M108 253h1M110 253h1M209 285h1M211 285h1M282 325h1M290 333h1" />
<path stroke="#99BBCC" d="M75 314h1M84 314h1M99 314h1M108 314h1M123 314h1M132 314h1M147 314h1M156 314h1M171 314h1M180 314h1M195 314h1M204 314h1M243 314h1M252 314h1M291 314h1M300 314h1M315 314h1M67 322h1M59 330h1M260 330h1" />
<path stroke="#99BBCC" d="M311 205h1M84 218h1M86 218h1M313 218h1M315 218h1M109 253h1M294 253h1M184 274h1M187 274h1M192 282h1M195 282h1M210 285h1M72 314h1M87 314h1M96 314h1M111 314h1M120 314h1M135 314h1M144 314h1M159 314h1M168 314h1M183 314h1M192 314h1M207 314h1M240 314h1M255 314h1M288 314h1M303 314h1M312 314h1M68 317h1M70 317h1M64 322h1M60 325h1M62 325h1M56 330h1M263 330h1M52 333h1M54 333h1" />
<path stroke="#99BBCC" d="M85 219h1M314 219h1M293 252h1M69 316h1M61 324h1M53 332h1" />
<path stroke="#99BBCC" d="M169 219h1" />
<path stroke="#99BBCC" d="M197 219h1" />

<path stroke="#65738d" d="M76 64h4M76 65h4M76 66h4M76 67h4M76 68h4M76 69h4M96 69h26M123 69h181M76 70h4M96 70h208M76 71h4M96 71h208M76 72h4M92 72h4M304 72h4M76 73h4M93 73h3M304 73h4M76 74h4M92 74h4M76 75h4M92 75h1M94 75h1M306 75h1M76 76h4M76 77h4M311 77h1M76 78h4M308 78h4M76 79h4M308 79h4M76 80h4M308 80h4M76 81h4M308 81h4M76 82h4M308 82h4M76 83h4M308 83h4M76 84h4M308 84h4M76 85h4M308 85h4M76 86h4M308 86h4M76 87h4M308 87h4M76 88h4M308 88h4M76 89h4M308 89h4M76 90h4M308 90h4M76 91h4M308 91h4M76 92h4M308 92h4M76 93h4M308 93h4M76 94h4M308 94h4M76 95h2M79 95h1M308 95h4M76 96h4M308 96h4M76 97h4M308 97h4M76 98h4M308 98h4M76 99h4M308 99h4M76 100h4M308 100h4M76 101h4M308 101h4M76 102h4M308 102h4M76 103h4M308 103h4M76 104h4M308 104h4M76 105h4M308 105h4M76 106h4M308 106h4M76 107h3M308 107h4M76 108h4M308 108h4M76 109h4M308 109h4M76 110h4M308 110h4M76 111h4M308 111h4M76 112h4M308 112h4M76 113h4M308 113h4M76 114h4M308 114h4M76 115h4M308 115h4M76 116h4M308 116h4M76 117h4M308 117h4M76 118h4M308 118h4M76 119h3M308 119h4M76 120h4M308 120h4M76 121h4M308 121h4M76 122h4M308 122h4M76 123h4M308 123h4M76 124h4M308 124h4M76 125h4M308 125h4M76 126h4M308 126h4M76 127h4M308 127h4M76 128h4M308 128h4M76 129h4M308 129h4M76 130h4M308 130h4M76 131h4M308 131h4M76 132h4M308 132h4M76 133h4M308 133h4M76 134h4M308 134h4M76 135h4M308 135h4M76 136h4M308 136h4M76 137h4M308 137h4M76 138h4M308 138h4M76 139h4M308 139h4M76 140h4M308 140h4M76 141h4M308 141h4M76 142h4M308 142h4M76 143h4M308 143h4M76 144h4M308 144h4M76 145h4M308 145h4M76 146h4M308 146h4M76 147h4M308 147h4M76 148h4M308 148h4M76 149h4M308 149h4M76 150h4M308 150h4M76 151h4M308 151h4M76 152h4M308 152h4M76 153h4M308 153h4M76 154h4M308 154h4M76 155h4M308 155h4M76 156h4M308 156h4M76 157h4M308 157h4M76 158h4M308 158h4M76 159h4M308 159h4M76 160h4M308 160h4M76 161h4M308 161h4M76 162h4M308 162h4M76 163h4M308 163h4M76 164h4M308 164h4M76 165h4M308 165h4M76 166h4M308 166h4M76 167h4M308 167h4M76 168h4M308 168h4M76 169h4M308 169h4M76 170h4M308 170h4M76 171h4M308 171h4M76 172h4M308 172h4M76 173h4M308 173h4M76 174h4M308 174h4M76 175h4M308 175h4M76 176h4M308 176h4M76 177h4M308 177h4M76 178h4M308 178h4M76 179h4M308 179h4M76 180h4M308 180h4M76 181h4M308 181h4M76 182h4M308 182h4M76 183h4M308 183h4M76 184h4M308 184h4M76 185h4M308 185h4M76 186h4M308 186h4M76 187h4M308 187h4M76 188h4M308 188h4M76 189h4M308 189h4M76 190h4M308 190h4M76 191h4M308 191h4M76 192h4M308 192h4M76 193h4M308 193h4M76 194h4M308 194h4M76 195h4M308 195h4M76 196h4M308 196h4M76 197h4M308 197h4M76 198h4M308 198h4M76 199h4M308 199h4M76 200h4M308 200h4M76 201h4M308 201h4M76 202h4M308 202h1M310 202h1M76 203h4M308 203h1M76 204h4M76 205h4M76 206h4M76 207h4M76 208h4M76 209h4M76 210h4M76 211h4M76 212h4M76 213h4M76 214h4M76 215h1M78 215h2M80 216h4M316 216h4M80 217h3M317 217h3M82 218h1M317 218h1M81 219h2M317 219h2M87 221h226M85 222h230M84 223h232M304 228h1M308 228h2M311 228h1M89 229h1M96 229h8M105 229h1M112 229h194M80 230h11M96 230h11M112 230h197M311 230h9M80 231h12M96 231h12M112 231h208M76 232h4M92 232h4M108 232h4M76 233h4M92 233h4M108 233h4M76 234h4M92 234h4M108 234h4M76 235h4M92 235h4M108 235h4M76 236h4M92 236h4M108 236h4M76 237h4M92 237h4M108 237h4M76 238h4M92 238h4M108 238h4M76 239h4M92 239h4M108 239h4M76 240h4M92 240h4M108 240h4M284 240h8M305 240h7M76 241h4M92 241h4M108 241h4M285 241h6M304 241h8M76 242h4M92 242h4M108 242h4M285 242h2M288 242h1M290 242h1M304 242h8M76 243h4M92 243h4M108 243h4M286 243h2M289 243h1M304 243h2M308 243h1M310 243h2M76 244h4M92 244h4M108 244h4M76 245h4M92 245h4M108 245h4M294 245h1M312 245h2M76 246h4M92 246h4M108 246h4M292 246h4M312 246h4M76 247h4M92 247h4M108 247h4M292 247h4M312 247h4M76 248h4M92 248h4M108 248h4M292 248h4M312 248h4M76 249h4M92 249h4M108 249h4M292 249h4M312 249h4M76 250h4M94 250h2M111 250h1M293 250h1M295 250h1M312 250h2M76 251h4M294 251h1M76 252h4M106 252h1M76 253h4M96 253h9M76 254h4M96 254h12M76 255h4M96 255h12M76 256h4M76 257h4M76 258h4M76 259h4M76 260h4M76 261h4M76 262h4M76 263h4M76 264h4M76 265h4M76 266h4M76 267h4M76 268h4M76 269h4M254 269h18M76 270h4M252 270h20M76 271h4M252 271h20M76 272h4M212 272h40M272 272h40M76 273h4M213 273h38M272 273h40M76 274h4M212 274h36M249 274h1M272 274h40M76 275h4M212 275h1M214 275h1M76 276h4M76 277h4M184 277h2M312 277h2M76 278h4M184 278h4M312 278h4M76 279h4M184 279h4M312 279h4M76 280h4M184 280h4M208 280h4M312 280h4M76 281h4M184 281h4M208 281h4M312 281h4M76 282h4M208 282h1M312 282h2M76 283h4M76 284h4M213 284h1M76 285h4M192 285h2M215 285h36M272 285h40M76 286h4M188 286h8M212 286h25M238 286h13M272 286h40M76 287h4M188 287h8M212 287h40M272 287h40M76 288h4M252 288h7M260 288h12M76 289h4M252 289h20M76 290h4M254 290h18M76 291h4M76 292h4M76 293h4M76 294h4M76 295h4M76 296h1M79 296h1M76 297h4M77 298h1M77 299h1M80 301h32M113 301h207M80 302h135M216 302h63M280 302h40M80 303h240M68 312h4M69 313h3M71 314h1M65 316h2M66 317h1M72 317h2M86 317h2M96 317h2M110 317h2M120 317h2M134 317h2M144 317h2M158 317h2M168 317h2M182 317h2M192 317h2M206 317h2M230 317h2M240 317h2M254 317h2M278 317h2M288 317h2M302 317h2M312 317h2M64 318h3M72 318h4M84 318h4M96 318h4M108 318h4M120 318h4M132 318h4M144 318h4M156 318h4M168 318h4M180 318h4M192 318h4M204 318h4M228 318h4M240 318h4M252 318h4M276 318h4M288 318h4M300 318h4M312 318h4M64 319h4M72 319h4M84 319h4M96 319h4M108 319h4M120 319h4M132 319h4M144 319h4M156 319h4M168 319h4M180 319h4M192 319h4M204 319h4M228 319h4M240 319h4M252 319h4M276 319h4M288 319h4M300 319h4M312 319h4M60 320h4M76 320h8M89 320h7M100 320h8M113 320h7M124 320h8M137 320h7M148 320h8M161 320h7M172 320h8M185 320h7M196 320h8M208 320h8M232 320h8M244 320h8M256 320h8M280 320h7M292 320h8M304 320h7M316 320h8M61 321h3M76 321h5M82 321h2M88 321h8M100 321h5M106 321h2M112 321h8M124 321h5M130 321h2M136 321h8M148 321h5M154 321h2M160 321h8M172 321h5M178 321h2M184 321h8M196 321h5M202 321h2M208 321h8M232 321h8M244 321h5M250 321h2M256 321h8M280 321h8M292 321h2M295 321h5M304 321h8M316 321h2M319 321h5M63 322h1M76 322h6M88 322h4M93 322h2M100 322h6M112 322h4M117 322h2M124 322h6M136 322h4M141 322h2M148 322h6M161 322h3M165 322h2M172 322h6M184 322h4M189 322h2M196 322h6M208 322h8M232 322h8M244 322h6M256 322h8M281 322h2M284 322h4M294 322h6M305 322h2M308 322h4M318 322h6M76 323h4M88 323h1M90 323h2M100 323h4M112 323h1M114 323h2M124 323h4M136 323h1M138 323h2M148 323h4M160 323h1M162 323h2M172 323h4M184 323h1M186 323h2M196 323h4M244 323h4M284 323h4M296 323h4M308 323h2M311 323h1M320 323h4M57 324h2M76 324h4M88 324h4M100 324h4M112 324h4M124 324h4M136 324h4M148 324h4M160 324h4M172 324h4M184 324h4M196 324h4M244 324h4M284 324h4M296 324h4M308 324h4M320 324h4M58 325h1M64 325h2M76 325h4M88 325h4M100 325h4M112 325h4M124 325h4M136 325h4M148 325h4M160 325h4M172 325h4M184 325h4M196 325h4M244 325h4M284 325h4M296 325h4M308 325h4M320 325h4M56 326h3M64 326h4M76 326h4M88 326h4M100 326h4M112 326h4M124 326h4M136 326h4M148 326h4M160 326h4M172 326h4M184 326h4M196 326h4M244 326h4M284 326h4M296 326h4M308 326h4M320 326h4M56 327h4M64 327h4M76 327h4M88 327h4M100 327h4M112 327h4M124 327h4M136 327h4M148 327h4M160 327h4M172 327h4M184 327h4M196 327h4M244 327h4M284 327h4M296 327h4M308 327h4M320 327h4M52 328h4M68 328h8M81 328h7M92 328h8M104 328h8M116 328h8M128 328h8M140 328h8M152 328h8M164 328h8M176 328h7M188 328h8M200 328h7M208 328h8M249 328h7M288 328h7M300 328h8M312 328h7M324 328h4M53 329h3M68 329h5M74 329h2M80 329h8M92 329h5M99 329h1M104 329h8M116 329h2M119 329h2M122 329h2M128 329h8M140 329h2M143 329h2M146 329h2M152 329h8M164 329h2M167 329h5M176 329h8M188 329h2M191 329h5M200 329h16M248 329h8M288 329h8M300 329h2M303 329h5M312 329h8M324 329h2M327 329h1M55 330h1M68 330h6M80 330h4M85 330h2M92 330h6M104 330h8M118 330h4M128 330h8M142 330h4M152 330h8M166 330h6M177 330h2M180 330h4M190 330h6M201 330h2M204 330h12M248 330h4M253 330h2M289 330h2M292 330h4M302 330h6M313 330h2M316 330h4M326 330h2M68 331h4M80 331h1M82 331h2M92 331h4M168 331h4M180 331h2M183 331h1M192 331h4M204 331h2M207 331h1M248 331h1M250 331h2M292 331h4M304 331h4M316 331h2M319 331h1M49 332h2M68 332h4M80 332h4M92 332h4M168 332h4M180 332h4M192 332h4M204 332h4M248 332h4M292 332h4M304 332h4M316 332h4M50 333h1M56 333h2M68 333h4M80 333h4M92 333h4M168 333h4M180 333h4M192 333h4M204 333h4M238 333h2M248 333h4M262 333h2M292 333h4M304 333h4M316 333h4M328 333h2M48 334h3M56 334h4M68 334h4M80 334h4M92 334h4M168 334h4M180 334h4M192 334h4M204 334h4M236 334h4M248 334h4M260 334h4M292 334h4M304 334h4M316 334h4M328 334h4M48 335h4M56 335h4M68 335h4M80 335h4M92 335h4M168 335h4M180 335h4M192 335h4M204 335h4M236 335h4M248 335h4M260 335h4M292 335h4M304 335h4M316 335h4M328 335h4M44 336h8M60 336h8M72 336h8M84 336h8M96 336h72M172 336h8M184 336h8M196 336h8M208 336h8M240 336h8M252 336h8M264 336h8M296 336h8M308 336h8M320 336h8M332 336h8M45 337h4M50 337h2M60 337h2M63 337h2M66 337h2M72 337h8M84 337h2M87 337h2M90 337h2M96 337h72M172 337h2M175 337h2M178 337h2M184 337h8M196 337h2M199 337h2M202 337h2M208 337h8M240 337h8M252 337h2M255 337h2M258 337h2M264 337h8M296 337h8M308 337h2M311 337h2M314 337h2M320 337h8M332 337h2M335 337h2M338 337h2M47 338h3M62 338h4M72 338h8M86 338h4M96 338h72M174 338h4M184 338h8M198 338h4M208 338h8M240 338h8M254 338h4M264 338h8M296 338h8M310 338h4M320 338h8M334 338h4M41 340h2M42 341h1M40 342h3M40 343h4M36 344h4M36 345h4M36 346h4M36 347h4M36 348h4M36 349h4M36 350h4M36 351h4M36 352h1M39 352h1M36 353h4M37 354h1M37 355h1M40 357h320M40 358h320M40 359h186M227 359h133" />
<path stroke="#64748b" d="M96 68h208M308 76h1M88 220h224M292 244h1M294 244h1M314 244h2M92 251h2M110 251h1M314 251h2M96 252h8M252 268h2M256 268h16M184 276h1M186 276h1M314 276h2M184 283h1M187 283h1M209 283h1M314 283h2M188 284h1M191 284h2M194 284h1M252 291h2M256 291h16M80 300h240M72 316h1M74 316h1M85 316h1M87 316h1M96 316h1M98 316h1M109 316h1M111 316h1M120 316h1M122 316h1M133 316h1M135 316h1M144 316h1M146 316h1M157 316h1M159 316h1M168 316h1M170 316h1M181 316h1M183 316h1M192 316h1M194 316h1M205 316h1M207 316h1M228 316h2M240 316h1M242 316h1M253 316h1M255 316h1M276 316h2M288 316h1M290 316h1M301 316h1M303 316h1M312 316h1M314 316h1M287 320h1M232 323h8M256 323h8M283 323h1M64 324h1M66 324h1M295 328h1M291 331h1M56 332h1M58 332h1M236 332h2M261 332h1M263 332h1M40 356h300M341 356h19" />
<path stroke="#64738d" d="M122 69h1M237 286h1M112 301h1M226 359h1" />
<path stroke="#2f213b" d="M96 72h130M227 72h77M96 73h192M289 73h15M96 74h208M96 75h125M222 75h82M92 76h1M94 76h1M96 76h208M94 77h210M93 78h215M92 79h34M127 79h181M92 80h188M292 80h16M92 81h188M292 81h16M92 82h188M292 82h1M294 82h14M92 83h20M120 83h12M133 83h3M140 83h12M156 83h124M292 83h1M294 83h1M296 83h12M92 84h20M120 84h16M140 84h12M156 84h124M289 84h1M291 84h1M296 84h12M92 85h20M120 85h16M140 85h12M156 85h134M291 85h1M296 85h12M92 86h20M120 86h16M140 86h12M156 86h136M296 86h12M92 87h20M120 87h16M140 87h12M156 87h136M296 87h12M92 88h16M112 88h8M124 88h4M132 88h4M140 88h16M160 88h124M285 88h11M300 88h8M92 89h16M112 89h8M124 89h4M132 89h4M140 89h16M160 89h136M300 89h8M92 90h16M112 90h8M124 90h4M132 90h4M140 90h3M144 90h12M160 90h136M300 90h8M92 91h16M112 91h8M124 91h4M132 91h4M140 91h1M143 91h13M164 91h132M300 91h8M92 92h16M112 92h8M124 92h4M132 92h5M139 92h1M144 92h12M164 92h132M300 92h8M92 93h16M112 93h24M137 93h3M144 93h16M164 93h132M300 93h8M92 94h16M112 94h28M144 94h16M164 94h132M300 94h8M92 95h16M112 95h28M144 95h16M164 95h132M300 95h8M92 96h16M112 96h28M144 96h16M164 96h132M300 96h8M92 97h16M112 97h28M144 97h16M164 97h132M300 97h8M92 98h16M112 98h28M144 98h16M164 98h79M244 98h50M295 98h1M300 98h8M92 99h16M112 99h8M124 99h4M132 99h8M148 99h8M164 99h132M300 99h8M92 100h16M112 100h8M124 100h4M132 100h8M148 100h8M164 100h132M300 100h8M92 101h16M112 101h8M124 101h4M132 101h12M148 101h8M160 101h136M297 101h1M300 101h3M304 101h4M92 102h11M104 102h4M112 102h8M124 102h4M132 102h12M148 102h8M160 102h148M92 103h16M112 103h8M124 103h4M132 103h12M148 103h8M160 103h44M205 103h95M301 103h2M304 103h4M92 104h20M120 104h24M148 104h4M156 104h12M172 104h136M92 105h20M120 105h24M148 105h4M156 105h12M172 105h136M92 106h20M120 106h24M148 106h4M156 106h12M172 106h136M92 107h20M120 107h24M148 107h4M156 107h12M172 107h136M92 108h20M120 108h24M148 108h4M156 108h12M172 108h58M231 108h77M92 109h192M285 109h23M92 110h216M92 111h216M92 112h149M242 112h66M92 113h216M92 114h216M92 115h216M92 116h216M92 117h216M92 118h216M92 119h216M92 120h99M192 120h116M92 121h216M92 122h216M92 123h94M187 123h121M92 124h216M92 125h42M135 125h85M221 125h87M92 126h24M117 126h191M92 127h216M92 128h12M105 128h203M92 129h216M92 130h216M92 131h216M92 132h109M202 132h106M92 133h216M92 134h216M92 135h216M92 136h198M291 136h17M92 137h216M92 138h216M92 139h40M133 139h175M92 140h216M92 141h16M109 141h134M244 141h64M92 142h216M92 143h216M92 144h216M92 145h216M92 146h101M194 146h114M92 147h216M92 148h216M92 149h216M92 150h13M106 150h59M166 150h142M92 151h15M108 151h31M140 151h106M247 151h61M92 152h216M92 153h216M92 154h216M92 155h4M97 155h198M296 155h12M92 156h198M291 156h17M92 157h216M92 158h216M92 159h216M92 160h22M115 160h175M291 160h17M92 161h216M92 162h216M92 163h216M92 164h216M92 165h216M92 166h55M148 166h117M266 166h42M92 167h216M92 168h216M92 169h46M139 169h169M92 170h216M92 171h216M92 172h216M92 173h216M92 174h216M92 175h216M92 176h216M92 177h26M119 177h189M92 178h89M182 178h126M92 179h216M92 180h216M92 181h216M92 182h216M92 183h216M92 184h216M92 185h193M286 185h22M92 186h216M92 187h216M92 188h216M92 189h216M92 190h28M121 190h85M207 190h101M92 191h216M92 192h216M92 193h216M92 194h216M92 195h216M92 196h216M92 197h216M92 198h216M92 199h216M92 200h216M92 201h216M92 202h1M96 202h129M226 202h78M305 202h1M92 203h1M96 203h110M207 203h97M305 203h1M307 203h1M96 204h111M208 204h96M96 205h208M96 206h208M96 207h208M88 224h3M93 224h2M96 224h11M109 224h2M112 224h196M88 225h3M92 225h15M108 225h17M126 225h49M176 225h132M89 226h1M92 226h12M105 226h1M108 226h197M92 227h4M108 227h4M92 228h4M108 228h4M92 229h4M108 229h4M92 230h4M108 230h4M92 231h4M108 231h4M84 268h1M86 268h1M88 268h80M86 269h1M88 269h80M84 270h2M87 270h81M84 271h84M252 272h20M252 273h20M252 274h20M252 275h20M212 276h1M214 276h1M252 276h20M214 277h34M249 277h1M252 277h60M213 278h38M252 278h60M212 279h25M238 279h13M253 279h2M256 279h56M84 280h84M252 280h20M85 281h1M88 281h80M252 281h3M256 281h16M84 282h1M86 282h82M254 282h1M256 282h16M85 283h1M88 283h80M252 283h2M256 283h16M84 292h1M86 292h1M88 292h80M86 293h1M88 293h80M84 294h2M87 294h81M84 295h84" />
<path stroke="#2f203b" d="M226 72h1M288 73h1M132 83h1M294 98h1M303 101h1M103 102h1M204 103h1M191 120h1M186 123h1M116 126h1M104 128h1M201 132h1M290 136h1M246 151h1M114 160h1M118 177h1M285 185h1M120 190h1M206 190h1M225 202h1M175 225h1M237 279h1" />
<path stroke="#64748d" d="M92 73h1M83 217h1M316 217h1M80 219h1M83 219h1M316 219h1M319 219h1M84 222h1M315 222h1M80 228h8M310 228h1M312 228h8M91 230h1M107 230h1M310 230h1M289 242h1M105 252h1M212 273h1M251 273h1M185 276h1M187 276h1M193 284h1M195 284h1M214 284h1M251 286h1M77 296h2M78 299h2M68 313h1M64 316h1M67 316h1M67 318h1M88 320h1M112 320h1M136 320h1M160 320h1M184 320h1M311 320h1M60 321h1M93 323h1M95 323h1M117 323h1M119 323h1M141 323h1M143 323h1M165 323h1M167 323h1M189 323h1M191 323h1M304 323h1M306 323h1M56 324h1M59 324h1M59 326h1M80 328h1M183 328h1M207 328h1M248 328h1M319 328h1M52 329h1M85 331h1M87 331h1M176 331h1M178 331h1M200 331h1M202 331h1M253 331h1M255 331h1M312 331h1M314 331h1M48 332h1M51 332h1M328 332h1M330 332h1M51 334h1M44 337h1M44 339h1M40 340h1M43 340h1M43 342h1M37 352h2M38 355h2" />
<path stroke="#66748e" d="M304 74h1M86 220h1M313 220h1M88 229h1M104 229h1M306 229h1M284 243h2M307 243h1M293 244h1M248 274h1M186 283h1M189 284h1M248 284h2M70 315h1M62 323h1M54 331h1M45 339h2" />
<path stroke="#65738e" d="M305 74h1M307 74h1M309 77h1M85 221h1M314 221h1M91 229h1M107 229h1M307 229h1M304 240h1M291 242h1M292 245h1M251 274h1M69 314h1M61 322h1M53 330h1" />
<path stroke="#66748f" d="M306 74h1M90 229h1M106 229h1M306 243h1M250 274h1" />

<path stroke="#64738a" d="M93 75h1M307 75h1M88 228h4M96 228h12M112 228h192M305 228h2M213 275h1M216 275h36M272 275h40" />
<path stroke="#65748b" d="M95 75h1M304 75h2M85 220h1M314 220h1M307 228h1M309 230h1M291 243h1M309 243h1M109 251h1M295 251h1M215 275h1M210 283h1M69 315h1M81 321h1M105 321h1M129 321h1M153 321h1M177 321h1M201 321h1M249 321h1M294 321h1M318 321h1M61 323h1M73 329h1M97 329h1M118 329h1M121 329h1M142 329h1M145 329h1M166 329h1M190 329h1M302 329h1M326 329h1M53 331h1M49 337h1M62 337h1M65 337h1M86 337h1M89 337h1M174 337h1M177 337h1M198 337h1M201 337h1M254 337h1M257 337h1M310 337h1M313 337h1M334 337h1M337 337h1" />
<path stroke="#2f213a" d="M221 75h1M93 77h1M307 77h1M126 79h1M293 83h1M295 83h1M288 84h1M290 84h1M300 103h1M284 109h1M241 112h1M220 125h1M132 139h1M108 141h1M243 141h1M193 146h1M105 150h1M165 150h1M139 151h1M290 156h1M290 160h1M181 178h1M94 202h2M307 202h1M206 203h1M125 225h1M307 226h1M84 269h1M87 269h1M213 277h1M84 293h1M87 293h1" />
<path stroke="#30223c" d="M93 76h1M306 76h1M112 83h8M139 83h1M155 83h1M163 91h1M123 92h1M131 92h1M156 92h1M123 99h1M131 99h1M147 99h1M156 99h1M140 100h1M163 100h1M112 108h8M147 108h1M155 108h1M171 108h1M92 224h1M108 224h1M213 276h1M252 279h1M252 282h1" />
<path stroke="#2f203d" d="M95 76h1M304 76h2M293 82h1M290 85h1M298 101h1M93 203h2M306 203h1M95 224h1M111 224h1M91 227h1M107 227h1M304 227h4M215 276h1M251 276h1M255 279h1M255 281h1M254 283h2" />
<path stroke="#30213e" d="M307 76h1M88 227h3M96 227h11M112 227h48M161 227h143M216 276h35M272 276h40" />
<path stroke="#65758e" d="M309 76h1M310 203h1M84 220h1M315 220h1M295 244h1M104 252h1M107 252h1M212 284h1M215 284h33M250 284h1M272 284h34M307 284h5M68 315h1M60 323h1M80 323h4M92 323h1M94 323h1M104 323h4M116 323h1M118 323h1M128 323h4M140 323h1M142 323h1M152 323h4M164 323h1M166 323h1M176 323h4M188 323h1M190 323h1M200 323h4M208 323h8M248 323h4M292 323h4M305 323h1M307 323h1M316 323h4M52 331h1M72 331h4M84 331h1M86 331h1M96 331h4M104 331h8M116 331h8M128 331h8M140 331h8M152 331h8M164 331h4M177 331h1M179 331h1M188 331h4M201 331h1M203 331h1M208 331h8M252 331h1M254 331h1M300 331h4M313 331h1M315 331h1M324 331h4M329 332h1M331 332h1M47 339h5M60 339h8M72 339h8M84 339h8M96 339h72M172 339h8M184 339h8M196 339h8M208 339h8M240 339h8M252 339h8M264 339h8M296 339h8M308 339h8M320 339h8M332 339h8" />
<path stroke="#65758c" d="M310 76h2M309 203h1M311 203h1M87 220h1M312 220h1M312 244h2M94 251h2M108 251h1M111 251h1M292 251h2M312 251h2M254 268h2M312 276h2M185 283h1M208 283h1M211 283h1M312 283h2M190 284h1M251 284h1M254 291h2M71 315h1M73 316h1M75 316h1M84 316h1M86 316h1M97 316h1M99 316h1M108 316h1M110 316h1M121 316h1M123 316h1M132 316h1M134 316h1M145 316h1M147 316h1M156 316h1M158 316h1M169 316h1M171 316h1M180 316h1M182 316h1M193 316h1M195 316h1M204 316h1M206 316h1M230 316h2M241 316h1M243 316h1M252 316h1M254 316h1M278 316h2M289 316h1M291 316h1M300 316h1M302 316h1M313 316h1M315 316h1M63 323h1M280 323h3M65 324h1M67 324h1M55 331h1M288 331h3M57 332h1M59 332h1M238 332h2M260 332h1M262 332h1" />
<path stroke="#2e203a" d="M92 77h1M304 77h1M91 224h1M107 224h1M90 226h1M106 226h1M306 226h1M86 270h1M212 277h1M250 277h1M251 279h1M84 281h1M86 281h2M84 283h1M86 283h1M86 294h1" />
<path stroke="#2e2039" d="M305 77h2M88 226h1M91 226h1M104 226h1M107 226h1M305 226h1M248 277h1M251 277h1" />
<path stroke="#67728e" d="M308 77h1M310 77h1M315 245h1M92 250h1M108 250h1M315 250h1M252 269h1M315 277h1M185 282h3M211 282h1M315 282h1M188 285h3M252 290h1M228 317h1M276 317h1M280 322h1M283 322h1M288 330h1M291 330h1M236 333h1" />
<path stroke="#30203b" d="M92 78h1M143 90h1M136 93h1M91 225h1M107 225h1M87 268h1M212 278h1M251 278h1M87 283h1M87 292h1" />

<path stroke="#423a5f" d="M280 80h8M280 81h8M280 82h8M297 92h1M299 92h1M297 93h1M297 94h2M296 95h3M296 96h4M297 97h3" />
<path stroke="#4e5277" d="M288 80h4M288 81h4M288 82h2M291 82h1M289 83h1M291 83h1M292 84h1M294 84h1M292 85h1M294 85h2M292 86h4M292 87h4M296 88h3M296 89h4M296 91h2M299 91h1" />
<path stroke="#4e5275" d="M290 82h1M293 85h1" />
<path stroke="#2f223c" d="M136 83h2M152 83h2M141 91h1M160 91h2M120 92h2M128 92h2M138 92h1M158 92h2M120 99h2M128 99h2M144 99h2M158 99h2M142 100h2M160 100h2M144 108h2M152 108h2M168 108h2" />
<path stroke="#2e213b" d="M138 83h1M154 83h1M280 84h8M284 88h1M142 91h1M162 91h1M122 92h1M130 92h1M137 92h1M157 92h1M243 98h1M122 99h1M130 99h1M146 99h1M157 99h1M141 100h1M162 100h1M296 100h2M299 100h1M303 103h1M146 108h1M154 108h1M170 108h1M230 108h1M134 125h1M107 151h1M96 155h1M295 155h1M147 166h1M265 166h1M138 169h1M207 204h1M85 282h1" />
<path stroke="#443a5f" d="M280 83h8M296 92h1M296 94h1M296 99h2M299 99h1" />
<path stroke="#4e5278" d="M288 83h1M290 83h1M293 84h1M295 84h1M299 88h1" />
<path stroke="#24f29c" d="M112 84h8M138 84h1M154 84h1M112 85h8M136 85h2M139 85h1M152 85h2M155 85h1M112 86h8M136 86h4M152 86h4M112 87h8M136 87h4M152 87h4M108 88h4M120 88h4M128 88h4M136 88h4M156 88h4M108 89h4M120 89h4M128 89h4M136 89h4M156 89h4M108 90h4M120 90h2M123 90h1M128 90h2M131 90h1M137 90h3M156 90h1M158 90h2M108 91h4M122 91h1M130 91h1M136 91h1M139 91h1M157 91h1M108 92h4M140 92h1M143 92h1M162 92h1M108 93h4M140 93h3M160 93h2M163 93h1M108 94h4M140 94h4M160 94h4M108 95h4M140 95h4M160 95h4M108 96h4M140 96h4M160 96h4M108 97h4M140 97h4M160 97h4M108 98h4M140 98h1M142 98h2M160 98h2M163 98h1M108 99h4M141 99h1M162 99h1M108 100h4M122 100h1M130 100h1M146 100h1M157 100h1M108 101h4M120 101h2M123 101h1M128 101h2M131 101h1M144 101h2M147 101h1M156 101h1M158 101h2M108 102h4M120 102h4M128 102h4M144 102h4M156 102h4M108 103h4M120 103h4M128 103h4M144 103h4M156 103h4M112 104h8M144 104h4M152 104h4M112 105h8M144 105h4M152 105h4M112 106h8M144 106h2M147 106h1M152 106h2M155 106h1M112 107h8M146 107h1M154 107h1" />
<path stroke="#24f29c" d="M136 84h2M152 84h2M120 91h2M128 91h2M138 91h1M158 91h2M141 92h1M160 92h2M142 99h2M160 99h2M120 100h2M128 100h2M144 100h2M158 100h2M144 107h2M152 107h2" />
<path stroke="#24f29c" d="M139 84h1M155 84h1M123 91h1M131 91h1M156 91h1M163 92h1M140 99h1M163 99h1M123 100h1M131 100h1M147 100h1M156 100h1M147 107h1M155 107h1" />
<path stroke="#24f29c" d="M138 85h1M154 85h1M122 90h1M130 90h1M136 90h1M157 90h1M143 93h1M162 93h1M141 98h1M162 98h1M122 101h1M130 101h1M146 101h1M157 101h1M146 106h1M154 106h1" />
<path stroke="#24f29c" d="M137 91h1M142 92h1" />
<path stroke="#4f5177" d="M296 90h3" />
<path stroke="#505278" d="M299 90h1" />
<path stroke="#4d5375" d="M298 91h1" />
<path stroke="#443961" d="M298 92h1M298 99h1" />
<path stroke="#413b5f" d="M296 93h1M298 93h2M299 98h1" />
<path stroke="#433b60" d="M299 94h1" />
<path stroke="#65728d" d="M78 95h1M79 107h1M77 215h1M215 302h1M98 329h1" />
<path stroke="#423b5d" d="M299 95h1M296 98h2" />
<path stroke="#423a61" d="M296 97h1" />
<path stroke="#413b5d" d="M298 98h1" />
<path stroke="#2e6235" d="M161 99h1" />
<path stroke="#2e223a" d="M298 100h1M93 202h1M304 202h1M85 269h1M253 282h1M85 293h1" />
<path stroke="#30203d" d="M296 101h1M299 101h1M95 203h1" />
<path stroke="#65738c" d="M79 119h1M259 288h1M279 302h1M160 322h1" />

<path stroke="#30223b" d="M306 202h1" />
<path stroke="#66728c" d="M309 202h1M107 253h1M212 285h1M251 285h1M75 317h1M84 317h1M99 317h1M108 317h1M123 317h1M132 317h1M147 317h1M156 317h1M171 317h1M180 317h1M195 317h1M204 317h1M243 317h1M252 317h1M291 317h1M300 317h1M315 317h1M82 322h1M92 322h1M106 322h1M116 322h1M130 322h1M140 322h1M154 322h1M164 322h1M178 322h1M188 322h1M202 322h1M250 322h1M293 322h1M307 322h1M317 322h1M67 325h1M74 330h1M84 330h1M98 330h1M117 330h1M122 330h1M141 330h1M146 330h1M165 330h1M179 330h1M189 330h1M203 330h1M252 330h1M301 330h1M315 330h1M325 330h1M59 333h1M260 333h1M331 333h1M50 338h1M61 338h1M66 338h1M85 338h1M90 338h1M173 338h1M178 338h1M197 338h1M202 338h1M253 338h1M258 338h1M309 338h1M314 338h1M333 338h1M338 338h1" />
<path stroke="#67738d" d="M311 202h1M81 218h1M83 218h1M316 218h1M318 218h1M84 221h1M86 221h1M313 221h1M315 221h1M80 229h8M309 229h11M284 241h1M288 243h1M290 243h1M109 250h1M294 250h1M105 253h2M186 277h2M210 282h1M194 285h2M213 285h2M76 298h1M78 298h2M68 314h1M70 314h1M65 317h1M67 317h1M74 317h1M85 317h1M98 317h1M109 317h1M122 317h1M133 317h1M146 317h1M157 317h1M170 317h1M181 317h1M194 317h1M205 317h1M242 317h1M253 317h1M290 317h1M301 317h1M314 317h1M60 322h1M62 322h1M83 322h1M95 322h1M107 322h1M119 322h1M131 322h1M143 322h1M155 322h1M167 322h1M179 322h1M191 322h1M203 322h1M251 322h1M292 322h1M304 322h1M316 322h1M57 325h1M59 325h1M66 325h1M52 330h1M54 330h1M75 330h1M87 330h1M99 330h1M116 330h1M123 330h1M140 330h1M147 330h1M164 330h1M176 330h1M188 330h1M200 330h1M255 330h1M300 330h1M312 330h1M324 330h1M49 333h1M51 333h1M58 333h1M261 333h1M330 333h1M44 338h1M46 338h1M51 338h1M60 338h1M67 338h1M84 338h1M91 338h1M172 338h1M179 338h1M196 338h1M203 338h1M252 338h1M259 338h1M308 338h1M315 338h1M332 338h1M339 338h1M40 341h2M43 341h1M36 354h1M38 354h2" />

<path stroke="#2e1f3c" d="M304 203h1M85 268h1M85 292h1" />


<path stroke="#68748e" d="M80 218h1M319 218h1M308 229h1M64 317h1M56 325h1M48 333h1" />
<!-- <path stroke="#c1d0cb" d="M80 220h1M83 220h1M316 220h1M319 220h1M83 222h1M316 222h1M80 227h8M312 227h8M74 298h1M76 300h1M78 300h2M67 313h1M64 315h1M67 315h1M59 321h1M56 323h1M59 323h1M51 329h1M48 331h1M51 331h1M43 337h1M40 339h1M43 339h1M34 354h1M36 356h1M38 356h2" /> -->
<!-- <path stroke="#bed1cb" d="M80 221h2M83 221h1M316 221h1M318 221h2M308 226h4M76 301h1M78 301h2M64 314h2M67 314h1M56 322h2M59 322h1M48 330h2M51 330h1M40 338h2M43 338h1M36 357h1M38 357h2" /> -->
<!-- <path stroke="#c1d2cc" d="M80 222h1M82 222h1M317 222h1M319 222h1M310 225h2M64 313h1M66 313h1M56 321h1M58 321h1M48 329h1M50 329h1" /> -->
<path stroke="#30203e" d="M160 227h1" />
<path stroke="#64728c" d="M291 241h1M284 242h1M287 242h1M293 245h1M292 250h1M184 282h1M191 285h1M89 323h1M113 323h1M137 323h1M161 323h1M185 323h1M310 323h1M81 331h1M182 331h1M206 331h1M249 331h1M318 331h1M45 338h1" />
<path stroke="#7d94a2" d="M293 242h3M292 253h1M83 267h1M83 269h1M191 282h1M84 284h1M86 284h1M184 285h1M84 286h1M86 286h2M83 291h1M83 293h1" />
<path stroke="#392036" d="M284 244h4" />
<path stroke="#603a39" d="M288 244h1" />
<path stroke="#5f3c3a" d="M289 244h1" />
<path stroke="#5e3b39" d="M290 244h1" />
<path stroke="#613a3b" d="M291 244h1M291 246h1" />
<path stroke="#3a6049" d="M304 244h3M304 245h4M305 246h3M304 247h4M308 248h4M308 249h4M309 250h1M308 251h1M310 251h1" />
<path stroke="#395f4a" d="M307 244h1" />
<path stroke="#4f7754" d="M308 244h1M310 244h2M308 245h4M308 246h4M308 247h4" />
<path stroke="#4f7755" d="M309 244h1" />
<path stroke="#3d2138" d="M284 245h1" />
<path stroke="#3a2137" d="M285 245h3M284 246h4M284 247h1M286 247h2M288 248h4M288 249h4M288 250h4M288 251h4" />
<path stroke="#613b3a" d="M288 245h4M288 246h3M288 247h4" />
<path stroke="#64728d" d="M295 245h1" />
<path stroke="#66718d" d="M314 245h1M93 250h1M110 250h1M314 250h1M253 269h1M314 277h1M209 282h1M314 282h1M253 290h1M229 317h1M277 317h1M237 333h1" />
<path stroke="#3a604b" d="M304 246h1" />
<path stroke="#3a2039" d="M285 247h1" />
<path stroke="#180e19" d="M284 248h4M284 249h4M284 250h1M286 250h2M284 251h1M286 251h1" />
<path stroke="#223b25" d="M304 248h3M304 249h4M304 250h4M304 251h2M307 251h1" />
<path stroke="#223c23" d="M307 248h1" />
<path stroke="#180d1b" d="M285 250h1" />
<path stroke="#396149" d="M308 250h1M310 250h2" />
<path stroke="#160f17" d="M285 251h1" />
<path stroke="#160e19" d="M287 251h1" />
<path stroke="#213a25" d="M306 251h1" />
<path stroke="#3c5f49" d="M309 251h1M311 251h1" />

<path stroke="#a1bbba" d="M85 267h1M85 291h1" />
<path stroke="#a0b7bc" d="M251 283h1" />
<path stroke="#2f233b" d="M255 282h1" />
<path stroke="#65758f" d="M306 284h1" />
<!-- <path stroke="#bfd0ca" d="M74 299h1M34 355h1" /> -->
<path stroke="#63738c" d="M76 299h1M36 355h1" />
<path stroke="#9ebabd" d="M323 299h1M355 339h1M356 340h1M363 355h1" />
<!-- <path stroke="#c1d0c9" d="M324 299h1M323 300h1M356 339h1M364 355h1M363 356h1" /> -->
<!-- <path stroke="#c2d1cc" d="M74 300h1M34 356h1" /> -->
<!-- <path stroke="#bed1cd" d="M75 300h1M324 300h1M325 301h1M35 356h1M364 356h1M365 357h1" /> -->

<path stroke="#64758b" d="M340 356h1" />
</svg>